<svg width="32" height="32" viewBox="0 0 32 32" fill="none" xmlns="http://www.w3.org/2000/svg">
<g clip-path="url(#clip0_1_570)">
<path d="M32 16C32 7.16364 24.8364 0 16 0C7.16364 0 0 7.16364 0 16C0 24.8364 7.16364 32 16 32C24.8364 32 32 24.8364 32 16Z" fill="#1D1D1B"/>
<path d="M11.7539 13.9334C10.7047 12.883 10.0802 11.4824 10 10C11.4793 10.0818 12.8758 10.7087 13.9199 11.7599C14.9687 12.8104 15.5932 14.2109 15.6738 15.6932C14.1945 15.6115 12.7979 14.9845 11.7539 13.9334ZM20.2461 13.9334C19.2021 14.9845 17.8055 15.6115 16.3262 15.6932C16.4067 14.2108 17.0312 12.8101 18.0801 11.7595C19.1243 10.7085 20.5208 10.0817 22 10C21.9198 11.4824 21.2953 12.883 20.2461 13.9334ZM20.2461 18.0666C21.2953 19.117 21.9198 20.5176 22 22C20.5207 21.9182 19.1242 21.2913 18.0801 20.2401C17.0313 19.1896 16.4068 17.7891 16.3262 16.3068C17.8055 16.3885 19.2021 17.0155 20.2461 18.0666ZM11.7539 18.0666C12.7964 17.0163 14.2139 16.3885 15.6944 16.306C15.6141 17.7873 14.9691 19.1882 13.9199 20.2401C12.8758 21.2913 11.4793 21.9182 10 22C10.0802 20.5176 10.7047 19.117 11.7539 18.0666Z" fill="white"/>
</g>
<defs>
<clipPath id="clip0_1_570">
<rect width="32" height="32" fill="white"/>
</clipPath>
</defs>
</svg>
