<svg width="6" height="9" viewBox="0 0 6 9" fill="none" xmlns="http://www.w3.org/2000/svg">
<g clip-path="url(#clip0_1185_735)">
<mask id="mask0_1185_735" style="mask-type:luminance" maskUnits="userSpaceOnUse" x="0" y="0" width="6" height="9">
<path d="M0 0H6V9H0V0Z" fill="white"/>
</mask>
<g mask="url(#mask0_1185_735)">
<path fill-rule="evenodd" clip-rule="evenodd" d="M3.37513 7.17375L4.66513 5.77875C4.71706 5.72594 4.77899 5.68399 4.8473 5.65536C4.91561 5.62672 4.98894 5.61198 5.06301 5.61198C5.13708 5.61198 5.2104 5.62672 5.27871 5.65536C5.34702 5.68399 5.40895 5.72594 5.46088 5.77875C5.56651 5.88619 5.6257 6.03083 5.6257 6.1815C5.6257 6.33217 5.56651 6.47681 5.46088 6.58425L3.40963 8.75025C3.33191 8.82958 3.23914 8.89259 3.13676 8.93562C3.03437 8.97864 2.92444 9.0008 2.81338 9.0008C2.70233 9.0008 2.59239 8.97864 2.49001 8.93562C2.38762 8.89259 2.29485 8.82958 2.21713 8.75025L0.165132 6.58425C0.0997463 6.51767 0.0515648 6.43616 0.0247542 6.34677C-0.00205631 6.25739 -0.00668874 6.16282 0.0112576 6.07124C0.0292039 5.97966 0.0691886 5.89383 0.127754 5.82118C0.186319 5.74852 0.261701 5.69123 0.347382 5.65425C0.450201 5.61135 0.563508 5.60021 0.672713 5.62226C0.781918 5.64432 0.882021 5.69856 0.960132 5.778L2.25013 7.173V0.5625C2.25013 0.413316 2.30939 0.270242 2.41488 0.164752C2.52037 0.0592632 2.66345 0 2.81263 0C2.96182 0 3.10489 0.0592632 3.21038 0.164752C3.31587 0.270242 3.37513 0.413316 3.37513 0.5625V7.17375Z" fill="#636360"/>
</g>
</g>
<defs>
<clipPath id="clip0_1185_735">
<rect width="6" height="9" fill="white"/>
</clipPath>
</defs>
</svg>
