<svg width="200" height="200" viewBox="0 0 200 200" fill="none" xmlns="http://www.w3.org/2000/svg">
<path d="M176.475 128.424C177.552 129.046 177.556 130.054 176.486 130.676L102.836 173.486C101.767 174.108 100.026 174.108 98.9486 173.486L53.8366 147.435C52.7595 146.814 52.7518 145.806 53.825 145.18L127.471 102.37C128.541 101.748 130.282 101.748 131.363 102.37L176.475 128.424Z" fill="#FFD6BC" stroke="#1D1D1B" stroke-width="0.5" stroke-miterlimit="10"/>
<path d="M176.487 130.676L102.84 173.486C101.771 174.108 100.03 174.108 98.9527 173.486L53.8407 147.436C53.3002 147.123 53.0261 146.71 53.03 146.3L53.0261 147.069C53.0261 147.478 53.2964 147.891 53.8369 148.204L98.9489 174.255C100.026 174.876 101.767 174.876 102.837 174.255L176.483 131.444C177.016 131.136 177.282 130.73 177.282 130.325L177.286 129.556C177.282 129.962 177.016 130.367 176.487 130.676Z" fill="white" stroke="#1D1D1B" stroke-width="0.5" stroke-miterlimit="10"/>
<path d="M93.3559 151.189V151.263C93.2864 151.263 93.2169 151.259 93.1475 151.259C92.468 151.224 91.8387 151.039 91.2557 150.706C90.6419 150.351 90.2751 150.031 90.1593 149.749L90.1477 149.722L90.2712 149.706L90.279 149.726L90.2944 149.76C90.418 150.019 90.7654 150.316 91.3445 150.652C91.9352 150.992 92.5722 151.17 93.2633 151.189C93.298 151.189 93.3289 151.189 93.3559 151.189Z" fill="#1D1D1B" stroke="#1D1D1B" stroke-width="0.5" stroke-linejoin="round"/>
<path d="M85.7383 152.351L82.4568 154.259L82.4413 154.266L82.3718 154.228L82.3873 154.22L85.665 152.312L85.6766 152.316L85.7383 152.351Z" fill="#1D1D1B" stroke="#1D1D1B" stroke-width="0.5" stroke-linejoin="round"/>
<path d="M95.7289 148.775C96.2733 149.088 96.2772 149.601 95.7328 149.914L86.2085 155.448C85.668 155.765 84.7839 155.765 84.2396 155.448L77.6224 151.629C77.078 151.312 77.0741 150.802 77.6146 150.486L87.1389 144.952C87.6833 144.635 88.5635 144.635 89.1117 144.952L95.7289 148.775ZM88.4825 154.077C88.4825 154.042 88.4786 154.008 88.4747 153.973L93.1462 151.258C93.2156 151.262 93.2851 151.262 93.3546 151.262V151.189C93.3237 151.189 93.2929 151.189 93.262 151.189L95.5861 149.837C96.0494 149.567 96.0455 149.13 95.5822 148.86L93.6673 147.756L93.7793 147.69L91.1 146.145L90.988 146.211L88.965 145.041C88.4979 144.77 87.7412 144.77 87.2779 145.041L80.1086 149.207C80.0469 149.204 79.9812 149.204 79.9195 149.2L79.9117 149.273L79.989 149.277L77.7536 150.575C77.2903 150.845 77.2942 151.285 77.7575 151.552L79.6994 152.675L79.6299 152.718L79.7187 152.768L79.7728 152.737L79.8075 152.756L82.2706 154.162L82.2011 154.204L82.2899 154.255L82.3594 154.212L82.4328 154.27L84.3747 155.375C84.838 155.641 85.5985 155.641 86.0618 155.375L88.3473 154.046V154.081H88.4825" fill="#1D1D1B"/>
<path d="M88.4825 154.077C88.4825 154.042 88.4786 154.008 88.4747 153.973L93.1462 151.258C93.2156 151.262 93.2851 151.262 93.3546 151.262V151.189C93.3237 151.189 93.2929 151.189 93.262 151.189L95.5861 149.837C96.0494 149.567 96.0455 149.13 95.5822 148.86L93.6673 147.756L93.7793 147.69L91.1 146.145L90.988 146.211L88.965 145.041C88.4979 144.77 87.7412 144.77 87.2779 145.041L80.1086 149.207C80.0469 149.204 79.9812 149.204 79.9195 149.2L79.9117 149.273L79.989 149.277L77.7536 150.575C77.2903 150.845 77.2942 151.285 77.7575 151.552L79.6994 152.675L79.6299 152.718L79.7187 152.768L79.7728 152.737L79.8075 152.756L82.2706 154.162L82.2011 154.204L82.2899 154.255L82.3594 154.212L82.4328 154.27L84.3747 155.375C84.838 155.641 85.5985 155.641 86.0618 155.375L88.3473 154.046V154.081H88.4825M95.7289 148.775C96.2733 149.088 96.2772 149.601 95.7328 149.914L86.2085 155.448C85.668 155.765 84.7839 155.765 84.2396 155.448L77.6224 151.629C77.078 151.312 77.0741 150.802 77.6146 150.486L87.1389 144.952C87.6833 144.635 88.5635 144.635 89.1117 144.952L95.7289 148.775Z" stroke="#1D1D1B" stroke-width="0.5" stroke-linejoin="round"/>
<path d="M91.1033 146.142L93.7826 147.687L93.6706 147.752L93.6436 147.768L90.2771 149.725L90.2694 149.706L90.1458 149.722L90.1574 149.749C89.698 149.702 89.2038 149.521 88.6633 149.212C88.1113 148.891 87.7445 148.567 87.5592 148.235L87.5476 148.212L90.9913 146.211L91.1033 146.142ZM93.5818 147.702L93.605 147.687L91.1033 146.246L91.0801 146.258L91.0531 146.273L87.6905 148.227L87.7136 148.266C87.8989 148.567 88.2464 148.864 88.7521 149.154C89.2772 149.455 89.7559 149.629 90.1844 149.671L93.5818 147.702Z" fill="#1D1D1B" stroke="#1D1D1B" stroke-width="0.5" stroke-linejoin="round"/>
<path d="M91.0992 146.3L87.7173 148.265L87.6941 148.227L91.0567 146.273L91.0992 146.3Z" fill="#1D1D1B" stroke="#1D1D1B" stroke-width="0.5" stroke-linejoin="round"/>
<path d="M93.7064 147.802L90.3206 149.771L90.2974 149.76L90.282 149.725L93.6446 147.767L93.7064 147.802Z" fill="#1D1D1B" stroke="#1D1D1B" stroke-width="0.5" stroke-linejoin="round"/>
<path d="M83.2045 150.784L79.8303 152.745L79.8148 152.753L79.7839 152.734L83.162 150.768L83.1813 150.772L83.2045 150.784Z" fill="#1D1D1B" stroke="#1D1D1B" stroke-width="0.5" stroke-linejoin="round"/>
<path d="M82.1662 149.741C82.7376 150.073 83.0812 150.39 83.197 150.699L83.1584 150.691L83.1275 150.761L83.1623 150.764L79.7803 152.73L79.7263 152.761L79.6375 152.711L79.7069 152.668L83.0735 150.71L83.0619 150.683C82.9461 150.398 82.614 150.1 82.0735 149.787C81.5215 149.471 80.8304 149.297 79.9888 149.27L79.9116 149.266L79.9193 149.193C79.9849 149.193 80.0467 149.197 80.1085 149.2C80.9308 149.247 81.618 149.424 82.1662 149.741Z" fill="#1D1D1B" stroke="#1D1D1B" stroke-width="0.5" stroke-linejoin="round"/>
<path d="M82.3877 154.221L82.3684 154.209L85.6345 152.309L85.6654 152.313L82.3877 154.221Z" fill="#1D1D1B" stroke="#1D1D1B" stroke-width="0.5" stroke-linejoin="round"/>
<path d="M84.8307 151.277C85.3403 151.571 85.626 151.895 85.6762 152.239L85.6337 152.231L85.6028 152.301L85.6376 152.305L82.3714 154.204L82.3019 154.247L82.2131 154.197L82.2826 154.154L85.5565 152.25L85.5526 152.22C85.4947 151.899 85.2245 151.602 84.7457 151.328C84.2554 151.046 83.7381 150.86 83.1899 150.771L83.1706 150.768L83.1358 150.764L83.1667 150.694L83.2053 150.702C83.7728 150.787 84.3211 150.984 84.8307 151.277Z" fill="#1D1D1B" stroke="#1D1D1B" stroke-width="0.5" stroke-linejoin="round"/>
<path d="M87.634 152.896C88.1475 153.193 88.4293 153.552 88.4756 153.969C88.4795 154.004 88.4833 154.039 88.4833 154.073H88.3559V154.039C88.3366 153.61 88.0664 153.243 87.5491 152.946C87.0317 152.645 86.4063 152.436 85.6843 152.313L85.6689 152.309L85.638 152.305L85.6033 152.301L85.6342 152.231L85.6766 152.239C86.4372 152.367 87.0896 152.583 87.634 152.896Z" fill="#1D1D1B" stroke="#1D1D1B" stroke-width="0.5" stroke-linejoin="round"/>
<path d="M91.0842 146.257L91.1035 146.246L93.6052 147.686L93.5821 147.701L91.0842 146.257Z" fill="#1D1D1B" stroke="#1D1D1B" stroke-width="0.5" stroke-linejoin="round"/>
<path d="M84.7997 147.385L81.9467 149.045L81.854 148.991L84.7109 147.335L84.7997 147.385Z" fill="white" stroke="#1D1D1B" stroke-width="0.5" stroke-linejoin="round"/>
<path d="M91.6337 151.331L88.7806 152.992L88.688 152.938L91.5449 151.281L91.6337 151.331Z" fill="white" stroke="#1D1D1B" stroke-width="0.5" stroke-linejoin="round"/>
<path d="M84.7121 147.335L81.8552 148.991L81.7703 148.941L84.6233 147.281L84.7121 147.335Z" fill="#1D1D1B" stroke="#1D1D1B" stroke-width="0.5" stroke-linejoin="round"/>
<path d="M91.7245 151.386L88.8676 153.042L88.7788 152.992L91.6319 151.332L91.7245 151.386Z" fill="#1D1D1B" stroke="#1D1D1B" stroke-width="0.5" stroke-linejoin="round"/>
<path d="M161.46 133.672C161.263 134.41 160.676 135.12 159.695 135.692C157.232 137.124 153.225 137.124 150.746 135.692C148.268 134.259 148.256 131.938 150.715 130.509C151.696 129.938 152.92 129.598 154.194 129.478C153.897 130.598 154.495 131.78 155.989 132.645C157.483 133.51 159.529 133.85 161.46 133.672Z" fill="white" stroke="#1D1D1B" stroke-width="0.5"/>
<path d="M167.548 129.247L167.521 129.263L167.394 129.189L167.456 129.282L167.425 129.301L167.266 129.263L167.394 129.336L167.363 129.355L167.193 129.259L167.239 129.232L167.405 129.27L167.34 129.174L167.382 129.151L167.548 129.247Z" fill="#1D1D1B"/>
<path d="M167.181 129.285L167.123 129.319L167.274 129.404L167.235 129.42L167.096 129.339L167.042 129.37L167.015 129.35L167.154 129.269L167.181 129.285Z" fill="#1D1D1B"/>
<path d="M164.912 127.459C167.391 128.891 167.402 131.212 164.943 132.641C163.962 133.209 162.742 133.552 161.468 133.668C161.712 132.753 161.357 131.791 160.399 131.004C160.341 130.953 160.283 130.911 160.221 130.865L160.171 130.83L160.148 130.811L160.117 130.787L160.094 130.772L160.063 130.749L160.028 130.726L159.994 130.702L159.947 130.672C159.913 130.648 159.901 130.641 159.886 130.633L159.862 130.618L159.824 130.594C159.785 130.571 159.77 130.563 159.758 130.552C159.716 130.529 159.696 130.513 159.673 130.502L159.608 130.463C159.573 130.444 159.557 130.436 159.542 130.428C159.503 130.405 159.488 130.401 159.476 130.394L159.449 130.378L159.407 130.355C159.364 130.332 159.345 130.324 159.33 130.316L159.291 130.297L159.252 130.278L159.214 130.258L159.187 130.247L159.148 130.227L159.117 130.212L159.079 130.193C158.978 130.146 158.897 130.115 158.816 130.081C157.446 129.529 155.789 129.324 154.207 129.471C154.403 128.733 154.99 128.022 155.971 127.455C158.426 126.03 162.434 126.03 164.912 127.459Z" fill="white" stroke="#1D1D1B" stroke-width="0.5"/>
<path d="M159.669 130.506L159.735 130.544L159.754 130.556L159.797 130.583L159.82 130.599L159.859 130.622L159.882 130.637L159.92 130.66L159.943 130.676L159.99 130.707L160.025 130.73L160.059 130.753L160.09 130.776L160.113 130.792L160.144 130.815L160.167 130.834L160.198 130.857L160.218 130.873C160.279 130.919 160.337 130.962 160.391 131.008C161.349 131.803 161.708 132.761 161.465 133.676C159.53 133.854 157.488 133.51 155.994 132.649C154.5 131.788 153.901 130.602 154.199 129.483C155.782 129.336 157.438 129.54 158.805 130.093C158.889 130.127 158.967 130.158 159.048 130.193L159.071 130.205L159.11 130.224L159.14 130.239L159.179 130.259L159.206 130.27L159.245 130.29L159.283 130.309L159.322 130.328L159.376 130.355L159.403 130.367L159.445 130.39L159.472 130.405L159.515 130.429L159.542 130.444L159.584 130.467L159.604 130.479L159.669 130.506Z" fill="white" stroke="#1D1D1B" stroke-width="0.5"/>
<path d="M130.398 114.105C129.39 114.688 128 114.611 126.761 113.893L122.634 111.51L123.611 110.943L124.877 111.672L126.224 110.9L127.17 111.445L125.827 112.217L127.935 113.433C128.448 113.731 129.066 113.711 129.633 113.379C129.78 113.287 129.904 113.19 130.008 113.082L130.989 113.65C130.823 113.82 130.622 113.97 130.398 114.105Z" fill="#1D1D1B"/>
<path d="M128.807 112.159C127.39 111.34 127.379 110.108 128.78 109.293C130.181 108.479 132.312 108.479 133.729 109.297C135.142 110.112 135.146 111.344 133.745 112.159C132.343 112.974 130.22 112.974 128.807 112.159ZM132.71 109.892C131.853 109.398 130.591 109.386 129.772 109.861C128.954 110.336 128.981 111.07 129.83 111.56C130.676 112.051 131.934 112.058 132.753 111.583C133.559 111.116 133.54 110.375 132.71 109.892Z" fill="#1D1D1B"/>
<path d="M118.948 115.121L119.947 114.538L120.449 114.827C120.449 114.82 120.577 114.175 121.322 113.742C122.441 113.09 124.074 113.051 125.244 113.727L128.051 115.349L127.055 115.928L124.322 114.348C123.631 113.951 122.743 113.943 122.009 114.372C121.449 114.7 121.21 115.264 121.943 115.688L124.715 117.287L123.715 117.87L118.948 115.121Z" fill="#1D1D1B"/>
<path d="M115.906 119.658C114.489 118.839 114.473 117.608 115.879 116.793C117.28 115.978 119.411 115.982 120.828 116.801C122.241 117.615 122.249 118.843 120.843 119.662C119.438 120.473 117.319 120.473 115.906 119.658ZM119.809 117.395C118.952 116.901 117.693 116.889 116.871 117.364C116.052 117.839 116.075 118.573 116.929 119.063C117.774 119.554 119.033 119.562 119.855 119.083C120.658 118.615 120.639 117.874 119.809 117.395Z" fill="#1D1D1B"/>
<path d="M115.781 122.056L115.77 122.079C115.53 122.566 115.082 123.01 114.461 123.365C112.484 124.516 109.48 124.508 107.477 123.35C105.469 122.191 105.45 120.449 107.427 119.303C109.407 118.152 112.415 118.156 114.422 119.314C115.299 119.82 115.812 120.446 115.92 121.118L115.928 121.175L116.017 121.156C116.422 121.071 116.804 120.951 117.152 120.805L118.013 121.454C117.36 121.735 116.615 121.94 115.824 122.052L115.781 122.056ZM108.558 122.72C109.998 123.55 112.11 123.581 113.472 122.79C113.754 122.627 113.986 122.438 114.152 122.226L114.202 122.164H114.086C113.083 122.16 112.09 122.044 111.164 121.824L111.754 121.033C112.584 121.23 113.476 121.326 114.368 121.318H114.449L114.441 121.272C114.372 120.785 113.974 120.314 113.333 119.94C111.89 119.106 109.778 119.079 108.419 119.866C107.056 120.666 107.114 121.89 108.558 122.72Z" fill="#1D1D1B"/>
<path d="M189.821 45.7839L51.4005 126.546L48.0996 124.639L189.821 42.8761V45.7839Z" fill="#FFEADD" stroke="#1D1D1B" stroke-width="0.5" stroke-miterlimit="10" stroke-linejoin="round"/>
<path d="M189.821 42.8756L48.219 124.654L35.6409 117.39L177.243 35.6157L189.821 42.8756Z" fill="#FFD6BC" stroke="#1D1D1B" stroke-width="0.5" stroke-miterlimit="10" stroke-linejoin="round"/>
<mask id="path-32-inside-1_1_369" fill="white">
<path d="M50.3301 120.444L50.029 120.618L45.8672 118.212L46.1683 118.042L50.3301 120.444Z"/>
</mask>
<path d="M50.3301 120.444L50.029 120.618L45.8672 118.212L46.1683 118.042L50.3301 120.444Z" fill="#1D1D1B"/>
<path d="M50.3301 120.444L50.58 120.877C50.7348 120.788 50.8301 120.622 50.8301 120.444C50.8301 120.265 50.7348 120.1 50.5801 120.011L50.3301 120.444ZM50.029 120.618L49.7788 121.05C49.9335 121.14 50.1241 121.14 50.2789 121.051L50.029 120.618ZM45.8672 118.212L45.6215 117.776C45.4652 117.865 45.3681 118.03 45.3672 118.209C45.3663 118.389 45.4616 118.555 45.617 118.645L45.8672 118.212ZM46.1683 118.042L46.4183 117.609C46.2651 117.52 46.0766 117.52 45.9226 117.606L46.1683 118.042ZM50.0802 120.011L49.7791 120.185L50.2789 121.051L50.58 120.877L50.0802 120.011ZM50.2792 120.185L46.1174 117.779L45.617 118.645L49.7788 121.05L50.2792 120.185ZM46.1129 118.647L46.414 118.477L45.9226 117.606L45.6215 117.776L46.1129 118.647ZM45.9184 118.475L50.0802 120.877L50.5801 120.011L46.4183 117.609L45.9184 118.475Z" fill="#1D1D1B" mask="url(#path-32-inside-1_1_369)"/>
<mask id="path-34-inside-2_1_369" fill="white">
<path d="M56.3287 116.979L56.0275 117.152L51.8657 114.747L52.1669 114.573L56.3287 116.979Z"/>
</mask>
<path d="M56.3287 116.979L56.0275 117.152L51.8657 114.747L52.1669 114.573L56.3287 116.979Z" fill="#1D1D1B"/>
<path d="M56.3287 116.979L56.5786 117.412C56.7333 117.322 56.8286 117.157 56.8287 116.979C56.8287 116.8 56.7335 116.635 56.5789 116.546L56.3287 116.979ZM56.0275 117.152L55.7773 117.585C55.932 117.675 56.1227 117.675 56.2774 117.585L56.0275 117.152ZM51.8657 114.747L51.6158 114.313C51.4611 114.403 51.3658 114.568 51.3657 114.746C51.3657 114.925 51.4609 115.09 51.6155 115.179L51.8657 114.747ZM52.1669 114.573L52.4171 114.14C52.2624 114.05 52.0717 114.05 51.9169 114.14L52.1669 114.573ZM56.0788 116.546L55.7776 116.719L56.2774 117.585L56.5786 117.412L56.0788 116.546ZM56.2778 116.719L52.116 114.314L51.6155 115.179L55.7773 117.585L56.2778 116.719ZM52.1156 115.18L52.4168 115.006L51.9169 114.14L51.6158 114.313L52.1156 115.18ZM51.9166 115.006L56.0784 117.411L56.5789 116.546L52.4171 114.14L51.9166 115.006Z" fill="#1D1D1B" mask="url(#path-34-inside-2_1_369)"/>
<mask id="path-36-inside-3_1_369" fill="white">
<path d="M51.5307 119.751L51.2296 119.925L49.1487 118.72L49.446 118.546L51.5307 119.751Z"/>
</mask>
<path d="M51.5307 119.751L51.2296 119.925L49.1487 118.72L49.446 118.546L51.5307 119.751Z" fill="#1D1D1B"/>
<path d="M51.5307 119.751L51.7806 120.184C51.9353 120.095 52.0307 119.93 52.0307 119.751C52.0308 119.572 51.9356 119.407 51.7809 119.318L51.5307 119.751ZM51.2296 119.925L50.9791 120.357C51.1338 120.447 51.3246 120.447 51.4795 120.358L51.2296 119.925ZM49.1487 118.72L48.8963 118.288C48.7426 118.378 48.6483 118.543 48.6487 118.721C48.6491 118.899 48.7441 119.063 48.8981 119.152L49.1487 118.72ZM49.446 118.546L49.6961 118.113C49.5406 118.023 49.3487 118.024 49.1936 118.114L49.446 118.546ZM51.2808 119.318L50.9797 119.491L51.4795 120.358L51.7806 120.184L51.2808 119.318ZM51.4801 119.492L49.3992 118.287L48.8981 119.152L50.9791 120.357L51.4801 119.492ZM49.401 119.151L49.6983 118.978L49.1936 118.114L48.8963 118.288L49.401 119.151ZM49.1958 118.979L51.2805 120.184L51.7809 119.318L49.6961 118.113L49.1958 118.979Z" fill="#1D1D1B" mask="url(#path-36-inside-3_1_369)"/>
<mask id="path-38-inside-4_1_369" fill="white">
<path d="M53.9279 118.365L53.6307 118.539L51.5459 117.334L51.847 117.16L53.9279 118.365Z"/>
</mask>
<path d="M53.9279 118.365L53.6307 118.539L51.5459 117.334L51.847 117.16L53.9279 118.365Z" fill="#1D1D1B"/>
<path d="M53.9279 118.365L54.1803 118.796C54.334 118.707 54.4283 118.542 54.4279 118.364C54.4276 118.186 54.3325 118.021 54.1785 117.932L53.9279 118.365ZM53.6307 118.539L53.3805 118.971C53.536 119.061 53.7279 119.061 53.883 118.97L53.6307 118.539ZM51.5459 117.334L51.296 116.901C51.1413 116.99 51.046 117.155 51.0459 117.334C51.0458 117.512 51.1411 117.677 51.2957 117.767L51.5459 117.334ZM51.847 117.16L52.0976 116.727C51.9428 116.638 51.752 116.637 51.5971 116.727L51.847 117.16ZM53.6756 117.933L53.3783 118.107L53.883 118.97L54.1803 118.796L53.6756 117.933ZM53.8808 118.106L51.7961 116.901L51.2957 117.767L53.3805 118.971L53.8808 118.106ZM51.7958 117.767L52.0969 117.593L51.5971 116.727L51.296 116.901L51.7958 117.767ZM51.5965 117.593L53.6774 118.797L54.1785 117.932L52.0976 116.727L51.5965 117.593Z" fill="#1D1D1B" mask="url(#path-38-inside-4_1_369)"/>
<mask id="path-40-inside-5_1_369" fill="white">
<path d="M62.3267 113.514L62.0256 113.688L57.8638 111.286L58.1649 111.113L62.3267 113.514Z"/>
</mask>
<path d="M62.3267 113.514L62.0256 113.688L57.8638 111.286L58.1649 111.113L62.3267 113.514Z" fill="#1D1D1B"/>
<path d="M62.3267 113.514L62.5766 113.948C62.7314 113.858 62.8267 113.693 62.8267 113.514C62.8267 113.336 62.7314 113.171 62.5766 113.081L62.3267 113.514ZM62.0256 113.688L61.7756 114.121C61.9303 114.211 62.1208 114.211 62.2755 114.121L62.0256 113.688ZM57.8638 111.286L57.6139 110.853C57.4591 110.943 57.3638 111.108 57.3638 111.286C57.3638 111.465 57.4591 111.63 57.6138 111.719L57.8638 111.286ZM58.1649 111.113L58.4148 110.679C58.2602 110.59 58.0697 110.59 57.915 110.679L58.1649 111.113ZM62.0768 113.081L61.7757 113.255L62.2755 114.121L62.5766 113.948L62.0768 113.081ZM62.2755 113.255L58.1137 110.853L57.6138 111.719L61.7756 114.121L62.2755 113.255ZM58.1137 111.719L58.4148 111.546L57.915 110.679L57.6139 110.853L58.1137 111.719ZM57.915 111.546L62.0768 113.948L62.5766 113.081L58.4148 110.679L57.915 111.546Z" fill="#1D1D1B" mask="url(#path-40-inside-5_1_369)"/>
<mask id="path-42-inside-6_1_369" fill="white">
<path d="M57.5288 116.285L57.2276 116.459L55.1467 115.258L55.4479 115.084L57.5288 116.285Z"/>
</mask>
<path d="M57.5288 116.285L57.2276 116.459L55.1467 115.258L55.4479 115.084L57.5288 116.285Z" fill="#1D1D1B"/>
<path d="M57.5288 116.285L57.7787 116.718C57.9334 116.629 58.0288 116.464 58.0288 116.285C58.0288 116.106 57.9334 115.941 57.7787 115.852L57.5288 116.285ZM57.2276 116.459L56.9777 116.892C57.1324 116.981 57.3229 116.981 57.4775 116.892L57.2276 116.459ZM55.1467 115.258L54.8968 114.825C54.7421 114.914 54.6467 115.079 54.6467 115.258C54.6467 115.437 54.7421 115.602 54.8968 115.691L55.1467 115.258ZM55.4479 115.084L55.6978 114.651C55.5431 114.562 55.3526 114.562 55.1979 114.651L55.4479 115.084ZM57.2789 115.852L56.9777 116.026L57.4775 116.892L57.7787 116.718L57.2789 115.852ZM57.4776 116.026L55.3967 114.825L54.8968 115.691L56.9777 116.892L57.4776 116.026ZM55.3966 115.691L55.6978 115.517L55.1979 114.651L54.8968 114.825L55.3966 115.691ZM55.1979 115.517L57.2788 116.718L57.7787 115.852L55.6978 114.651L55.1979 115.517Z" fill="#1D1D1B" mask="url(#path-42-inside-6_1_369)"/>
<mask id="path-44-inside-7_1_369" fill="white">
<path d="M59.927 114.901L59.6297 115.074L57.5488 113.873L57.8461 113.7L59.927 114.901Z"/>
</mask>
<path d="M59.927 114.901L59.6297 115.074L57.5488 113.873L57.8461 113.7L59.927 114.901Z" fill="#1D1D1B"/>
<path d="M59.927 114.901L60.1793 115.332C60.3331 115.242 60.4275 115.077 60.427 114.899C60.4265 114.721 60.3312 114.557 60.1769 114.468L59.927 114.901ZM59.6297 115.074L59.3798 115.508C59.5353 115.597 59.727 115.597 59.8821 115.506L59.6297 115.074ZM57.5488 113.873L57.2965 113.442C57.1427 113.532 57.0483 113.697 57.0488 113.875C57.0493 114.053 57.1446 114.217 57.2989 114.307L57.5488 113.873ZM57.8461 113.7L58.096 113.267C57.9405 113.177 57.7488 113.177 57.5938 113.268L57.8461 113.7ZM59.6747 114.469L59.3774 114.643L59.8821 115.506L60.1793 115.332L59.6747 114.469ZM59.8797 114.641L57.7988 113.44L57.2989 114.307L59.3798 115.508L59.8797 114.641ZM57.8012 114.305L58.0984 114.131L57.5938 113.268L57.2965 113.442L57.8012 114.305ZM57.5962 114.133L59.6771 115.334L60.1769 114.468L58.096 113.267L57.5962 114.133Z" fill="#1D1D1B" mask="url(#path-44-inside-7_1_369)"/>
<mask id="path-46-inside-8_1_369" fill="white">
<path d="M68.3274 110.047L68.0302 110.221L63.8645 107.819L64.1656 107.645L68.3274 110.047Z"/>
</mask>
<path d="M68.3274 110.047L68.0302 110.221L63.8645 107.819L64.1656 107.645L68.3274 110.047Z" fill="#1D1D1B"/>
<path d="M68.3274 110.047L68.5798 110.479C68.7336 110.389 68.8279 110.224 68.8274 110.046C68.8269 109.868 68.7317 109.703 68.5774 109.614L68.3274 110.047ZM68.0302 110.221L67.7804 110.654C67.9359 110.744 68.1275 110.743 68.2825 110.653L68.0302 110.221ZM63.8645 107.819L63.6146 107.386C63.4598 107.475 63.3645 107.64 63.3645 107.819C63.3645 107.998 63.4599 108.163 63.6147 108.252L63.8645 107.819ZM64.1656 107.645L64.4156 107.212C64.2609 107.123 64.0704 107.123 63.9157 107.212L64.1656 107.645ZM68.0751 109.615L67.7778 109.789L68.2825 110.653L68.5798 110.479L68.0751 109.615ZM68.2799 109.788L64.1143 107.386L63.6147 108.252L67.7804 110.654L68.2799 109.788ZM64.1144 108.252L64.4155 108.078L63.9157 107.212L63.6146 107.386L64.1144 108.252ZM63.9157 108.078L68.0775 110.48L68.5774 109.614L64.4156 107.212L63.9157 108.078Z" fill="#1D1D1B" mask="url(#path-46-inside-8_1_369)"/>
<mask id="path-48-inside-9_1_369" fill="white">
<path d="M63.5278 112.819L63.2267 112.993L61.1458 111.792L61.4469 111.618L63.5278 112.819Z"/>
</mask>
<path d="M63.5278 112.819L63.2267 112.993L61.1458 111.792L61.4469 111.618L63.5278 112.819Z" fill="#1D1D1B"/>
<path d="M63.5278 112.819L63.7777 113.252C63.9324 113.163 64.0278 112.998 64.0278 112.819C64.0278 112.64 63.9325 112.475 63.7777 112.386L63.5278 112.819ZM63.2267 112.993L62.9767 113.426C63.1314 113.515 63.3219 113.515 63.4766 113.426L63.2267 112.993ZM61.1458 111.792L60.8958 111.359C60.7411 111.448 60.6458 111.613 60.6458 111.792C60.6457 111.971 60.7411 112.136 60.8958 112.225L61.1458 111.792ZM61.4469 111.618L61.6968 111.185C61.5422 111.096 61.3516 111.096 61.197 111.185L61.4469 111.618ZM63.2779 112.386L62.9767 112.56L63.4766 113.426L63.7777 113.252L63.2779 112.386ZM63.4766 112.56L61.3957 111.359L60.8958 112.225L62.9767 113.426L63.4766 112.56ZM61.3957 112.225L61.6968 112.051L61.197 111.185L60.8958 111.359L61.3957 112.225ZM61.197 112.051L63.2779 113.252L63.7777 112.386L61.6968 111.185L61.197 112.051Z" fill="#1D1D1B" mask="url(#path-48-inside-9_1_369)"/>
<mask id="path-50-inside-10_1_369" fill="white">
<path d="M65.9282 111.433L65.627 111.607L63.5461 110.406L63.8434 110.232L65.9282 111.433Z"/>
</mask>
<path d="M65.9282 111.433L65.627 111.607L63.5461 110.406L63.8434 110.232L65.9282 111.433Z" fill="#1D1D1B"/>
<path d="M65.9282 111.433L66.1781 111.866C66.3329 111.777 66.4282 111.612 66.4282 111.433C66.4281 111.254 66.3326 111.089 66.1778 111L65.9282 111.433ZM65.627 111.607L65.3771 112.04C65.5318 112.129 65.7223 112.129 65.877 112.04L65.627 111.607ZM63.5461 110.406L63.2938 109.974C63.14 110.064 63.0456 110.229 63.0461 110.407C63.0466 110.586 63.1419 110.75 63.2962 110.839L63.5461 110.406ZM63.8434 110.232L64.093 109.799C63.9375 109.709 63.746 109.71 63.5911 109.801L63.8434 110.232ZM65.6783 111L65.3771 111.174L65.877 112.04L66.1781 111.866L65.6783 111ZM65.877 111.174L63.7961 109.973L63.2962 110.839L65.3771 112.04L65.877 111.174ZM63.7985 110.838L64.0957 110.664L63.5911 109.801L63.2938 109.974L63.7985 110.838ZM63.5938 110.666L65.6786 111.867L66.1778 111L64.093 109.799L63.5938 110.666Z" fill="#1D1D1B" mask="url(#path-50-inside-10_1_369)"/>
<mask id="path-52-inside-11_1_369" fill="white">
<path d="M74.3292 106.585L74.0319 106.759L69.8662 104.353L70.1673 104.179L74.3292 106.585Z"/>
</mask>
<path d="M74.3292 106.585L74.0319 106.759L69.8662 104.353L70.1673 104.179L74.3292 106.585Z" fill="#1D1D1B"/>
<path d="M74.3292 106.585L74.5815 107.016C74.7352 106.927 74.8296 106.762 74.8292 106.584C74.8287 106.405 74.7336 106.241 74.5794 106.152L74.3292 106.585ZM74.0319 106.759L73.7818 107.192C73.9374 107.281 74.1291 107.281 74.2842 107.19L74.0319 106.759ZM69.8662 104.353L69.6163 103.92C69.4616 104.009 69.3662 104.174 69.3662 104.353C69.3662 104.531 69.4615 104.696 69.6162 104.786L69.8662 104.353ZM70.1673 104.179L70.4176 103.746C70.2629 103.657 70.0722 103.657 69.9174 103.746L70.1673 104.179ZM74.0768 106.153L73.7796 106.327L74.2842 107.19L74.5815 107.016L74.0768 106.153ZM74.2819 106.326L70.1163 103.92L69.6162 104.786L73.7818 107.192L74.2819 106.326ZM70.1161 104.786L70.4173 104.612L69.9174 103.746L69.6163 103.92L70.1161 104.786ZM69.9171 104.612L74.0789 107.018L74.5794 106.152L70.4176 103.746L69.9171 104.612Z" fill="#1D1D1B" mask="url(#path-52-inside-11_1_369)"/>
<mask id="path-54-inside-12_1_369" fill="white">
<path d="M69.5312 109.356L69.2301 109.53L67.1492 108.325L67.4503 108.151L69.5312 109.356Z"/>
</mask>
<path d="M69.5312 109.356L69.2301 109.53L67.1492 108.325L67.4503 108.151L69.5312 109.356Z" fill="#1D1D1B"/>
<path d="M69.5312 109.356L69.7811 109.789C69.9358 109.7 70.0311 109.535 70.0312 109.357C70.0313 109.178 69.9363 109.013 69.7817 108.923L69.5312 109.356ZM69.2301 109.53L68.9795 109.963C69.1343 110.052 69.3251 110.052 69.48 109.963L69.2301 109.53ZM67.1492 108.325L66.8993 107.892C66.7446 107.981 66.6493 108.146 66.6492 108.325C66.649 108.503 66.7441 108.668 66.8986 108.758L67.1492 108.325ZM67.4503 108.151L67.7008 107.719C67.5461 107.629 67.3553 107.629 67.2004 107.718L67.4503 108.151ZM69.2813 108.923L68.9802 109.097L69.48 109.963L69.7811 109.789L69.2813 108.923ZM69.4806 109.097L67.3997 107.892L66.8986 108.758L68.9795 109.963L69.4806 109.097ZM67.3991 108.758L67.7002 108.584L67.2004 107.718L66.8993 107.892L67.3991 108.758ZM67.1998 108.584L69.2807 109.789L69.7817 108.923L67.7008 107.719L67.1998 108.584Z" fill="#1D1D1B" mask="url(#path-54-inside-12_1_369)"/>
<mask id="path-56-inside-13_1_369" fill="white">
<path d="M71.9299 107.971L71.6288 108.145L69.5479 106.94L69.849 106.77L71.9299 107.971Z"/>
</mask>
<path d="M71.9299 107.971L71.6288 108.145L69.5479 106.94L69.849 106.77L71.9299 107.971Z" fill="#1D1D1B"/>
<path d="M71.9299 107.971L72.1798 108.404C72.3345 108.315 72.4299 108.15 72.4299 107.971C72.4299 107.792 72.3346 107.627 72.1798 107.538L71.9299 107.971ZM71.6288 108.145L71.3782 108.577C71.533 108.667 71.7238 108.667 71.8787 108.578L71.6288 108.145ZM69.5479 106.94L69.3021 106.504C69.1459 106.593 69.0489 106.758 69.0479 106.937C69.0469 107.116 69.1421 107.283 69.2973 107.373L69.5479 106.94ZM69.849 106.77L70.0989 106.337C69.9458 106.248 69.7573 106.248 69.6033 106.334L69.849 106.77ZM71.68 107.538L71.3788 107.712L71.8787 108.578L72.1798 108.404L71.68 107.538ZM71.8793 107.712L69.7984 106.507L69.2973 107.373L71.3782 108.577L71.8793 107.712ZM69.7936 107.375L70.0947 107.205L69.6033 106.334L69.3021 106.504L69.7936 107.375ZM69.5991 107.203L71.68 108.404L72.1798 107.538L70.0989 106.337L69.5991 107.203Z" fill="#1D1D1B" mask="url(#path-56-inside-13_1_369)"/>
<mask id="path-58-inside-14_1_369" fill="white">
<path d="M80.3323 103.117L80.0312 103.287L75.8694 100.885L76.1667 100.712L80.3323 103.117Z"/>
</mask>
<path d="M80.3323 103.117L80.0312 103.287L75.8694 100.885L76.1667 100.712L80.3323 103.117Z" fill="#1D1D1B"/>
<path d="M80.3323 103.117L80.578 103.553C80.7344 103.465 80.8314 103.299 80.8323 103.12C80.8332 102.94 80.7378 102.774 80.5824 102.684L80.3323 103.117ZM80.0312 103.287L79.7813 103.72C79.9344 103.809 80.1229 103.81 80.2769 103.723L80.0312 103.287ZM75.8694 100.885L75.6171 100.454C75.4632 100.544 75.3689 100.709 75.3694 100.887C75.3699 101.065 75.4651 101.229 75.6195 101.318L75.8694 100.885ZM76.1667 100.712L76.4167 100.279C76.2612 100.189 76.0694 100.189 75.9143 100.28L76.1667 100.712ZM80.0866 102.682L79.7855 102.852L80.2769 103.723L80.578 103.553L80.0866 102.682ZM80.2811 102.854L76.1193 100.452L75.6195 101.318L79.7813 103.72L80.2811 102.854ZM76.1217 101.317L76.419 101.143L75.9143 100.28L75.6171 100.454L76.1217 101.317ZM75.9166 101.145L80.0823 103.55L80.5824 102.684L76.4167 100.279L75.9166 101.145Z" fill="#1D1D1B" mask="url(#path-58-inside-14_1_369)"/>
<mask id="path-60-inside-15_1_369" fill="white">
<path d="M75.5263 105.886L75.2291 106.059L73.1443 104.858L73.4454 104.685L75.5263 105.886Z"/>
</mask>
<path d="M75.5263 105.886L75.2291 106.059L73.1443 104.858L73.4454 104.685L75.5263 105.886Z" fill="#1D1D1B"/>
<path d="M75.5263 105.886L75.7787 106.317C75.9325 106.227 76.0268 106.062 76.0263 105.884C76.0258 105.706 75.9306 105.542 75.7763 105.453L75.5263 105.886ZM75.2291 106.059L74.9795 106.493C75.1349 106.582 75.3265 106.582 75.4814 106.491L75.2291 106.059ZM73.1443 104.858L72.8944 104.425C72.7396 104.515 72.6442 104.68 72.6443 104.859C72.6444 105.037 72.7398 105.202 72.8947 105.292L73.1443 104.858ZM73.4454 104.685L73.6954 104.252C73.5407 104.162 73.3502 104.162 73.1955 104.252L73.4454 104.685ZM75.274 105.454L74.9767 105.628L75.4814 106.491L75.7787 106.317L75.274 105.454ZM75.4786 105.626L73.3939 104.425L72.8947 105.292L74.9795 106.493L75.4786 105.626ZM73.3942 105.292L73.6953 105.118L73.1955 104.252L72.8944 104.425L73.3942 105.292ZM73.1955 105.118L75.2764 106.319L75.7763 105.453L73.6954 104.252L73.1955 105.118Z" fill="#1D1D1B" mask="url(#path-60-inside-15_1_369)"/>
<mask id="path-62-inside-16_1_369" fill="white">
<path d="M77.9284 104.501L77.6273 104.675L75.5464 103.474L75.8475 103.3L77.9284 104.501Z"/>
</mask>
<path d="M77.9284 104.501L77.6273 104.675L75.5464 103.474L75.8475 103.3L77.9284 104.501Z" fill="#1D1D1B"/>
<path d="M77.9284 104.501L78.1783 104.934C78.3331 104.845 78.4284 104.68 78.4284 104.501C78.4284 104.322 78.3331 104.157 78.1784 104.068L77.9284 104.501ZM77.6273 104.675L77.3774 105.108C77.532 105.197 77.7225 105.197 77.8772 105.108L77.6273 104.675ZM75.5464 103.474L75.2965 103.041C75.1417 103.13 75.0464 103.295 75.0464 103.474C75.0464 103.653 75.1417 103.818 75.2965 103.907L75.5464 103.474ZM75.8475 103.3L76.0974 102.867C75.9428 102.778 75.7523 102.778 75.5976 102.867L75.8475 103.3ZM77.6785 104.068L77.3774 104.242L77.8772 105.108L78.1783 104.934L77.6785 104.068ZM77.8772 104.242L75.7963 103.041L75.2965 103.907L77.3774 105.108L77.8772 104.242ZM75.7963 103.907L76.0974 103.733L75.5976 102.867L75.2965 103.041L75.7963 103.907ZM75.5976 103.733L77.6785 104.934L78.1784 104.068L76.0974 102.867L75.5976 103.733Z" fill="#1D1D1B" mask="url(#path-62-inside-16_1_369)"/>
<mask id="path-64-inside-17_1_369" fill="white">
<path d="M86.3289 99.6513L86.0278 99.8251L81.866 97.4232L82.1632 97.2494L86.3289 99.6513Z"/>
</mask>
<path d="M86.3289 99.6513L86.0278 99.8251L81.866 97.4232L82.1632 97.2494L86.3289 99.6513Z" fill="#1D1D1B"/>
<path d="M86.3289 99.6513L86.5788 100.084C86.7336 99.9951 86.8289 99.8299 86.8289 99.6512C86.8289 99.4725 86.7335 99.3074 86.5787 99.2182L86.3289 99.6513ZM86.0278 99.8251L85.7778 100.258C85.9325 100.347 86.123 100.347 86.2777 100.258L86.0278 99.8251ZM81.866 97.4232L81.6136 96.9915C81.4598 97.0814 81.3655 97.2464 81.366 97.4245C81.3665 97.6027 81.4617 97.7672 81.616 97.8562L81.866 97.4232ZM82.1632 97.2494L82.413 96.8162C82.2575 96.7266 82.0659 96.7271 81.9109 96.8177L82.1632 97.2494ZM86.079 99.2183L85.7779 99.392L86.2777 100.258L86.5788 100.084L86.079 99.2183ZM86.2777 99.3921L82.1159 96.9901L81.616 97.8562L85.7778 100.258L86.2777 99.3921ZM82.1183 97.8548L82.4156 97.681L81.9109 96.8177L81.6136 96.9915L82.1183 97.8548ZM81.9135 97.6825L86.0792 100.084L86.5787 99.2182L82.413 96.8162L81.9135 97.6825Z" fill="#1D1D1B" mask="url(#path-64-inside-17_1_369)"/>
<mask id="path-66-inside-18_1_369" fill="white">
<path d="M81.5271 102.424L81.2298 102.598L79.1489 101.397L79.4462 101.223L81.5271 102.424Z"/>
</mask>
<path d="M81.5271 102.424L81.2298 102.598L79.1489 101.397L79.4462 101.223L81.5271 102.424Z" fill="#1D1D1B"/>
<path d="M81.5271 102.424L81.7794 102.855C81.9333 102.765 82.0276 102.601 82.0271 102.422C82.0266 102.244 81.9314 102.08 81.777 101.991L81.5271 102.424ZM81.2298 102.598L80.9799 103.031C81.1354 103.12 81.3271 103.12 81.4822 103.029L81.2298 102.598ZM79.1489 101.397L78.8966 100.965C78.7428 101.055 78.6484 101.22 78.6489 101.398C78.6494 101.576 78.7447 101.741 78.899 101.83L79.1489 101.397ZM79.4462 101.223L79.6961 100.79C79.5406 100.7 79.3489 100.7 79.1939 100.791L79.4462 101.223ZM81.2748 101.992L80.9775 102.166L81.4822 103.029L81.7794 102.855L81.2748 101.992ZM81.4798 102.164L79.3989 100.963L78.899 101.83L80.9799 103.031L81.4798 102.164ZM79.4013 101.828L79.6985 101.654L79.1939 100.791L78.8966 100.965L79.4013 101.828ZM79.1963 101.656L81.2772 102.857L81.777 101.991L79.6961 100.79L79.1963 101.656Z" fill="#1D1D1B" mask="url(#path-66-inside-18_1_369)"/>
<mask id="path-68-inside-19_1_369" fill="white">
<path d="M83.9267 101.038L83.6256 101.211L81.5447 100.01L81.8458 99.8365L83.9267 101.038Z"/>
</mask>
<path d="M83.9267 101.038L83.6256 101.211L81.5447 100.01L81.8458 99.8365L83.9267 101.038Z" fill="#1D1D1B"/>
<path d="M83.9267 101.038L84.1766 101.471C84.3314 101.381 84.4267 101.216 84.4267 101.038C84.4267 100.859 84.3314 100.694 84.1767 100.604L83.9267 101.038ZM83.6256 101.211L83.3757 101.644C83.5303 101.734 83.7208 101.734 83.8755 101.644L83.6256 101.211ZM81.5447 100.01L81.2948 99.5773C81.14 99.6666 81.0447 99.8316 81.0447 100.01C81.0447 100.189 81.14 100.354 81.2947 100.443L81.5447 100.01ZM81.8458 99.8365L82.0957 99.4035C81.9411 99.3142 81.7506 99.3142 81.5959 99.4035L81.8458 99.8365ZM83.6768 100.604L83.3757 100.778L83.8755 101.644L84.1766 101.471L83.6768 100.604ZM83.8755 100.778L81.7946 99.5773L81.2947 100.443L83.3757 101.644L83.8755 100.778ZM81.7946 100.443L82.0957 100.27L81.5959 99.4035L81.2948 99.5773L81.7946 100.443ZM81.5959 100.27L83.6768 101.471L84.1767 100.604L82.0957 99.4035L81.5959 100.27Z" fill="#1D1D1B" mask="url(#path-68-inside-19_1_369)"/>
<mask id="path-70-inside-20_1_369" fill="white">
<path d="M92.3309 96.1863L92.0297 96.3601L87.8679 93.9543L88.1691 93.7805L92.3309 96.1863Z"/>
</mask>
<path d="M92.3309 96.1863L92.0297 96.3601L87.8679 93.9543L88.1691 93.7805L92.3309 96.1863Z" fill="#1D1D1B"/>
<path d="M92.3309 96.1863L92.5808 96.6194C92.7355 96.5301 92.8308 96.3651 92.8309 96.1865C92.8309 96.0079 92.7357 95.8428 92.5811 95.7534L92.3309 96.1863ZM92.0297 96.3601L91.7795 96.793C91.9342 96.8824 92.1249 96.8825 92.2796 96.7932L92.0297 96.3601ZM87.8679 93.9543L87.618 93.5212C87.4633 93.6105 87.368 93.7755 87.3679 93.9541C87.3679 94.1327 87.4631 94.2978 87.6177 94.3872L87.8679 93.9543ZM88.1691 93.7805L88.4193 93.3476C88.2646 93.2582 88.0739 93.2581 87.9191 93.3475L88.1691 93.7805ZM92.081 95.7533L91.7798 95.927L92.2796 96.7932L92.5808 96.6194L92.081 95.7533ZM92.28 95.9272L88.1182 93.5214L87.6177 94.3872L91.7795 96.793L92.28 95.9272ZM88.1178 94.3874L88.419 94.2136L87.9191 93.3475L87.618 93.5212L88.1178 94.3874ZM87.9188 94.2134L92.0806 96.6192L92.5811 95.7534L88.4193 93.3476L87.9188 94.2134Z" fill="#1D1D1B" mask="url(#path-70-inside-20_1_369)"/>
<mask id="path-72-inside-21_1_369" fill="white">
<path d="M87.5329 98.9594L87.2318 99.1332L85.1509 97.9283L85.4482 97.7584L87.5329 98.9594Z"/>
</mask>
<path d="M87.5329 98.9594L87.2318 99.1332L85.1509 97.9283L85.4482 97.7584L87.5329 98.9594Z" fill="#1D1D1B"/>
<path d="M87.5329 98.9594L87.7828 99.3925C87.9376 99.3031 88.033 99.1379 88.0329 98.9592C88.0328 98.7805 87.9374 98.6154 87.7825 98.5261L87.5329 98.9594ZM87.2318 99.1332L86.9812 99.5659C87.136 99.6555 87.3268 99.6556 87.4817 99.5662L87.2318 99.1332ZM85.1509 97.9283L84.9028 97.4942C84.7474 97.583 84.6514 97.748 84.6509 97.9269C84.6504 98.1059 84.7455 98.2714 84.9003 98.361L85.1509 97.9283ZM85.4482 97.7584L85.6977 97.3252C85.5438 97.2365 85.3543 97.2362 85.2 97.3243L85.4482 97.7584ZM87.283 98.5263L86.9819 98.7001L87.4817 99.5662L87.7828 99.3925L87.283 98.5263ZM87.4823 98.7005L85.4014 97.4956L84.9003 98.361L86.9812 99.5659L87.4823 98.7005ZM85.399 98.3624L85.6963 98.1925L85.2 97.3243L84.9028 97.4942L85.399 98.3624ZM85.1986 98.1917L87.2833 99.3926L87.7825 98.5261L85.6977 97.3252L85.1986 98.1917Z" fill="#1D1D1B" mask="url(#path-72-inside-21_1_369)"/>
<mask id="path-74-inside-22_1_369" fill="white">
<path d="M89.9301 97.5741L89.629 97.7479L87.5481 96.5431L87.8492 96.3732L89.9301 97.5741Z"/>
</mask>
<path d="M89.9301 97.5741L89.629 97.7479L87.5481 96.5431L87.8492 96.3732L89.9301 97.5741Z" fill="#1D1D1B"/>
<path d="M89.9301 97.5741L90.18 98.0072C90.3348 97.9179 90.4301 97.7528 90.4301 97.5742C90.4301 97.3955 90.3348 97.2304 90.1801 97.1411L89.9301 97.5741ZM89.629 97.7479L89.3785 98.1806C89.5332 98.2702 89.724 98.2704 89.8789 98.181L89.629 97.7479ZM87.5481 96.5431L87.3024 96.1076C87.1461 96.1958 87.0491 96.3609 87.0481 96.5403C87.0471 96.7197 87.1423 96.8859 87.2976 96.9758L87.5481 96.5431ZM87.8492 96.3732L88.0992 95.9401C87.946 95.8517 87.7575 95.8508 87.6035 95.9377L87.8492 96.3732ZM89.6802 97.1411L89.3791 97.3148L89.8789 98.181L90.18 98.0072L89.6802 97.1411ZM89.8795 97.3152L87.7986 96.1104L87.2976 96.9758L89.3785 98.1806L89.8795 97.3152ZM87.7938 96.9785L88.0949 96.8086L87.6035 95.9377L87.3024 96.1076L87.7938 96.9785ZM87.5993 96.8062L89.6802 98.0072L90.1801 97.1411L88.0992 95.9401L87.5993 96.8062Z" fill="#1D1D1B" mask="url(#path-74-inside-22_1_369)"/>
<mask id="path-76-inside-23_1_369" fill="white">
<path d="M98.3274 92.7248L98.0263 92.8947L93.8645 90.4927L94.1656 90.319L98.3274 92.7248Z"/>
</mask>
<path d="M98.3274 92.7248L98.0263 92.8947L93.8645 90.4927L94.1656 90.319L98.3274 92.7248Z" fill="#1D1D1B"/>
<path d="M98.3274 92.7248L98.5731 93.1602C98.7294 93.072 98.8265 92.9068 98.8274 92.7274C98.8284 92.5479 98.733 92.3817 98.5777 92.2919L98.3274 92.7248ZM98.0263 92.8947L97.7764 93.3277C97.9295 93.4161 98.118 93.417 98.272 93.3301L98.0263 92.8947ZM93.8645 90.4927L93.6146 90.0597C93.4598 90.149 93.3645 90.3141 93.3645 90.4927C93.3645 90.6714 93.4598 90.8365 93.6146 90.9258L93.8645 90.4927ZM94.1656 90.319L94.4159 89.8861C94.2612 89.7967 94.0705 89.7966 93.9157 89.8859L94.1656 90.319ZM98.0817 92.2893L97.7806 92.4592L98.272 93.3301L98.5731 93.1602L98.0817 92.2893ZM98.2762 92.4616L94.1144 90.0597L93.6146 90.9258L97.7764 93.3277L98.2762 92.4616ZM94.1144 90.9258L94.4155 90.752L93.9157 89.8859L93.6146 90.0597L94.1144 90.9258ZM93.9154 90.7518L98.0772 93.1576L98.5777 92.2919L94.4159 89.8861L93.9154 90.7518Z" fill="#1D1D1B" mask="url(#path-76-inside-23_1_369)"/>
<mask id="path-78-inside-24_1_369" fill="white">
<path d="M93.5295 95.4915L93.2284 95.6653L91.1475 94.4643L91.4486 94.2905L93.5295 95.4915Z"/>
</mask>
<path d="M93.5295 95.4915L93.2284 95.6653L91.1475 94.4643L91.4486 94.2905L93.5295 95.4915Z" fill="#1D1D1B"/>
<path d="M93.5295 95.4915L93.7794 95.9246C93.9342 95.8353 94.0295 95.6702 94.0295 95.4915C94.0295 95.3128 93.9342 95.1478 93.7794 95.0584L93.5295 95.4915ZM93.2284 95.6653L92.9784 96.0983C93.1331 96.1876 93.3236 96.1876 93.4783 96.0983L93.2284 95.6653ZM91.1475 94.4643L90.8976 94.0312C90.7428 94.1205 90.6475 94.2856 90.6475 94.4643C90.6475 94.643 90.7428 94.808 90.8975 94.8974L91.1475 94.4643ZM91.4486 94.2905L91.6985 93.8575C91.5439 93.7682 91.3533 93.7682 91.1987 93.8575L91.4486 94.2905ZM93.2796 95.0584L92.9785 95.2322L93.4783 96.0983L93.7794 95.9246L93.2796 95.0584ZM93.4783 95.2322L91.3974 94.0312L90.8975 94.8974L92.9784 96.0983L93.4783 95.2322ZM91.3974 94.8974L91.6985 94.7236L91.1987 93.8575L90.8976 94.0312L91.3974 94.8974ZM91.1987 94.7236L93.2796 95.9245L93.7794 95.0584L91.6985 93.8575L91.1987 94.7236Z" fill="#1D1D1B" mask="url(#path-78-inside-24_1_369)"/>
<mask id="path-80-inside-25_1_369" fill="white">
<path d="M95.9277 94.111L95.6305 94.2809L93.5496 93.0799L93.8468 92.9061L95.9277 94.111Z"/>
</mask>
<path d="M95.9277 94.111L95.6305 94.2809L93.5496 93.0799L93.8468 92.9061L95.9277 94.111Z" fill="#1D1D1B"/>
<path d="M95.9277 94.111L96.1759 94.5451C96.3312 94.4563 96.4272 94.2913 96.4277 94.1123C96.4282 93.9334 96.3331 93.7679 96.1783 93.6783L95.9277 94.111ZM95.6305 94.2809L95.3805 94.7139C95.5346 94.8028 95.7242 94.8032 95.8786 94.715L95.6305 94.2809ZM93.5496 93.0799L93.2972 92.6482C93.1434 92.7382 93.0491 92.9031 93.0496 93.0813C93.0501 93.2595 93.1453 93.4239 93.2996 93.513L93.5496 93.0799ZM93.8468 92.9061L94.0974 92.4734C93.9418 92.3833 93.7497 92.3837 93.5945 92.4745L93.8468 92.9061ZM95.6796 93.6769L95.3823 93.8468L95.8786 94.715L96.1759 94.5451L95.6796 93.6769ZM95.8804 93.8478L93.7995 92.6468L93.2996 93.513L95.3805 94.7139L95.8804 93.8478ZM93.8019 93.5116L94.0992 93.3378L93.5945 92.4745L93.2972 92.6482L93.8019 93.5116ZM93.5963 93.3388L95.6772 94.5437L96.1783 93.6783L94.0974 92.4734L93.5963 93.3388Z" fill="#1D1D1B" mask="url(#path-80-inside-25_1_369)"/>
<mask id="path-82-inside-26_1_369" fill="white">
<path d="M104.328 89.2568L104.027 89.4306L99.865 87.0286L100.166 86.8549L104.328 89.2568Z"/>
</mask>
<path d="M104.328 89.2568L104.027 89.4306L99.865 87.0286L100.166 86.8549L104.328 89.2568Z" fill="#1D1D1B"/>
<path d="M104.328 89.2568L104.578 89.6899C104.733 89.6006 104.828 89.4355 104.828 89.2568C104.828 89.0781 104.733 88.9131 104.578 88.8237L104.328 89.2568ZM104.027 89.4306L103.777 89.8636C103.932 89.9529 104.122 89.9529 104.277 89.8636L104.027 89.4306ZM99.865 87.0286L99.6151 86.5956C99.4603 86.6849 99.365 86.85 99.365 87.0286C99.365 87.2073 99.4603 87.3724 99.6151 87.4617L99.865 87.0286ZM100.166 86.8549L100.416 86.4218C100.261 86.3325 100.071 86.3325 99.9162 86.4218L100.166 86.8549ZM104.078 88.8237L103.777 88.9975L104.277 89.8636L104.578 89.6899L104.078 88.8237ZM104.277 88.9975L100.115 86.5956L99.6151 87.4617L103.777 89.8636L104.277 88.9975ZM100.115 87.4617L100.416 87.2879L99.9162 86.4218L99.6151 86.5956L100.115 87.4617ZM99.9162 87.2879L104.078 89.6899L104.578 88.8237L100.416 86.4218L99.9162 87.2879Z" fill="#1D1D1B" mask="url(#path-82-inside-26_1_369)"/>
<mask id="path-84-inside-27_1_369" fill="white">
<path d="M99.5315 92.029L99.2303 92.2027L97.1494 91.0018L97.4505 90.828L99.5315 92.029Z"/>
</mask>
<path d="M99.5315 92.029L99.2303 92.2027L97.1494 91.0018L97.4505 90.828L99.5315 92.029Z" fill="#1D1D1B"/>
<path d="M99.5315 92.029L99.7814 92.462C99.9361 92.3727 100.031 92.2077 100.031 92.029C100.031 91.8503 99.9361 91.6852 99.7814 91.5959L99.5315 92.029ZM99.2303 92.2027L98.9804 92.6358C99.1351 92.7251 99.3256 92.7251 99.4802 92.6358L99.2303 92.2027ZM97.1494 91.0018L96.8995 90.5687C96.7448 90.658 96.6494 90.8231 96.6494 91.0018C96.6494 91.1804 96.7447 91.3455 96.8995 91.4348L97.1494 91.0018ZM97.4505 90.828L97.7005 90.395C97.5458 90.3057 97.3553 90.3057 97.2006 90.3949L97.4505 90.828ZM99.2816 91.5959L98.9804 91.7697L99.4802 92.6358L99.7814 92.462L99.2816 91.5959ZM99.4803 91.7697L97.3993 90.5687L96.8995 91.4348L98.9804 92.6358L99.4803 91.7697ZM97.3993 91.4348L97.7005 91.2611L97.2006 90.3949L96.8995 90.5687L97.3993 91.4348ZM97.2006 91.2611L99.2815 92.462L99.7814 91.5959L97.7005 90.395L97.2006 91.2611Z" fill="#1D1D1B" mask="url(#path-84-inside-27_1_369)"/>
<mask id="path-86-inside-28_1_369" fill="white">
<path d="M101.926 90.643L101.629 90.8168L99.5481 89.6158L99.8454 89.442L101.926 90.643Z"/>
</mask>
<path d="M101.926 90.643L101.629 90.8168L99.5481 89.6158L99.8454 89.442L101.926 90.643Z" fill="#1D1D1B"/>
<path d="M101.926 90.643L102.179 91.0746C102.332 90.9847 102.427 90.8198 102.426 90.6416C102.426 90.4634 102.331 90.299 102.176 90.2099L101.926 90.643ZM101.629 90.8168L101.379 91.2498C101.535 91.3396 101.726 91.339 101.881 91.2484L101.629 90.8168ZM99.5481 89.6158L99.2958 89.1841C99.142 89.274 99.0476 89.439 99.0481 89.6172C99.0486 89.7953 99.1439 89.9598 99.2982 90.0488L99.5481 89.6158ZM99.8454 89.442L100.095 89.009C99.9398 88.9192 99.7481 88.9197 99.593 89.0104L99.8454 89.442ZM101.674 90.2113L101.377 90.3851L101.881 91.2484L102.179 91.0746L101.674 90.2113ZM101.879 90.3837L99.798 89.1827L99.2982 90.0488L101.379 91.2498L101.879 90.3837ZM99.8004 90.0474L100.098 89.8737L99.593 89.0104L99.2958 89.1841L99.8004 90.0474ZM99.5954 89.8751L101.676 91.076L102.176 90.2099L100.095 89.009L99.5954 89.8751Z" fill="#1D1D1B" mask="url(#path-86-inside-28_1_369)"/>
<mask id="path-88-inside-29_1_369" fill="white">
<path d="M110.327 85.7939L110.029 85.9676L105.864 83.5618L106.165 83.3881L110.327 85.7939Z"/>
</mask>
<path d="M110.327 85.7939L110.029 85.9676L105.864 83.5618L106.165 83.3881L110.327 85.7939Z" fill="#1D1D1B"/>
<path d="M110.327 85.7939L110.579 86.2255C110.733 86.1356 110.827 85.9708 110.827 85.7926C110.826 85.6145 110.731 85.4501 110.577 85.361L110.327 85.7939ZM110.029 85.9676L109.779 86.4006C109.935 86.4904 110.127 86.4899 110.282 86.3993L110.029 85.9676ZM105.864 83.5618L105.614 83.1288C105.459 83.2181 105.364 83.3831 105.364 83.5617C105.364 83.7404 105.459 83.9055 105.614 83.9948L105.864 83.5618ZM106.165 83.3881L106.415 82.9552C106.26 82.8658 106.07 82.8657 105.915 82.955L106.165 83.3881ZM110.074 85.3622L109.777 85.536L110.282 86.3993L110.579 86.2255L110.074 85.3622ZM110.28 85.5347L106.114 83.1289L105.614 83.9948L109.779 86.4006L110.28 85.5347ZM106.114 83.9949L106.415 83.8211L105.915 82.955L105.614 83.1288L106.114 83.9949ZM105.915 83.8209L110.076 86.2267L110.577 85.361L106.415 82.9552L105.915 83.8209Z" fill="#1D1D1B" mask="url(#path-88-inside-29_1_369)"/>
<mask id="path-90-inside-30_1_369" fill="white">
<path d="M105.531 88.5678L105.23 88.7416L103.149 87.5367L103.45 87.3668L105.531 88.5678Z"/>
</mask>
<path d="M105.531 88.5678L105.23 88.7416L103.149 87.5367L103.45 87.3668L105.531 88.5678Z" fill="#1D1D1B"/>
<path d="M105.531 88.5678L105.781 89.0009C105.935 88.9116 106.031 88.7465 106.031 88.5678C106.031 88.3891 105.935 88.224 105.781 88.1347L105.531 88.5678ZM105.23 88.7416L104.979 89.1743C105.134 89.2639 105.325 89.264 105.48 89.1746L105.23 88.7416ZM103.149 87.5367L102.903 87.1013C102.747 87.1894 102.65 87.3546 102.649 87.534C102.648 87.7134 102.743 87.8795 102.898 87.9694L103.149 87.5367ZM103.45 87.3668L103.7 86.9338C103.547 86.8454 103.358 86.8445 103.204 86.9314L103.45 87.3668ZM105.281 88.1347L104.98 88.3085L105.48 89.1746L105.781 89.0009L105.281 88.1347ZM105.48 88.3089L103.399 87.104L102.898 87.9694L104.979 89.1743L105.48 88.3089ZM103.394 87.9722L103.696 87.8023L103.204 86.9314L102.903 87.1013L103.394 87.9722ZM103.2 87.7999L105.281 89.0008L105.781 88.1347L103.7 86.9338L103.2 87.7999Z" fill="#1D1D1B" mask="url(#path-90-inside-30_1_369)"/>
<mask id="path-92-inside-31_1_369" fill="white">
<path d="M107.931 87.1785L107.63 87.3523L105.549 86.1475L105.85 85.9775L107.931 87.1785Z"/>
</mask>
<path d="M107.931 87.1785L107.63 87.3523L105.549 86.1475L105.85 85.9775L107.931 87.1785Z" fill="#1D1D1B"/>
<path d="M107.931 87.1785L108.181 87.6116C108.336 87.5223 108.431 87.3572 108.431 87.1785C108.431 86.9999 108.336 86.8348 108.181 86.7455L107.931 87.1785ZM107.63 87.3523L107.379 87.785C107.534 87.8746 107.725 87.8747 107.88 87.7853L107.63 87.3523ZM105.549 86.1475L105.303 85.712C105.147 85.8002 105.05 85.9653 105.049 86.1447C105.048 86.3241 105.143 86.4903 105.298 86.5802L105.549 86.1475ZM105.85 85.9775L106.1 85.5445C105.947 85.4561 105.758 85.4552 105.604 85.5421L105.85 85.9775ZM107.681 86.7454L107.38 86.9192L107.88 87.7853L108.181 87.6116L107.681 86.7454ZM107.88 86.9196L105.799 85.7147L105.298 86.5802L107.379 87.785L107.88 86.9196ZM105.795 86.5829L106.096 86.413L105.604 85.5421L105.303 85.712L105.795 86.5829ZM105.6 86.4106L107.681 87.6116L108.181 86.7455L106.1 85.5445L105.6 86.4106Z" fill="#1D1D1B" mask="url(#path-92-inside-31_1_369)"/>
<mask id="path-94-inside-32_1_369" fill="white">
<path d="M116.327 82.3278L116.03 82.5016L111.868 80.0958L112.165 79.922L116.327 82.3278Z"/>
</mask>
<path d="M116.327 82.3278L116.03 82.5016L111.868 80.0958L112.165 79.922L116.327 82.3278Z" fill="#1D1D1B"/>
<path d="M116.327 82.3278L116.58 82.7595C116.733 82.6696 116.828 82.5047 116.827 82.3266C116.827 82.1485 116.732 81.9841 116.577 81.8949L116.327 82.3278ZM116.03 82.5016L115.78 82.9344C115.935 83.0244 116.127 83.0239 116.282 82.9332L116.03 82.5016ZM111.868 80.0958L111.616 79.6641C111.462 79.754 111.368 79.9189 111.368 80.097C111.369 80.2751 111.464 80.4395 111.618 80.5286L111.868 80.0958ZM112.165 79.922L112.416 79.4891C112.26 79.3992 112.068 79.3997 111.913 79.4903L112.165 79.922ZM116.075 81.8961L115.778 82.0699L116.282 82.9332L116.58 82.7595L116.075 81.8961ZM116.28 82.0687L112.118 79.6629L111.618 80.5286L115.78 82.9344L116.28 82.0687ZM112.12 80.5274L112.418 80.3537L111.913 79.4903L111.616 79.6641L112.12 80.5274ZM111.915 80.3549L116.077 82.7607L116.577 81.8949L112.416 79.4891L111.915 80.3549Z" fill="#1D1D1B" mask="url(#path-94-inside-32_1_369)"/>
<mask id="path-96-inside-33_1_369" fill="white">
<path d="M111.529 85.1L111.227 85.2699L109.146 84.0689L109.448 83.8951L111.529 85.1Z"/>
</mask>
<path d="M111.529 85.1L111.227 85.2699L109.146 84.0689L109.448 83.8951L111.529 85.1Z" fill="#1D1D1B"/>
<path d="M111.529 85.1L111.774 85.5354C111.93 85.4473 112.028 85.2822 112.029 85.1028C112.03 84.9233 111.934 84.7572 111.779 84.6673L111.529 85.1ZM111.227 85.2699L110.977 85.7029C111.131 85.7913 111.319 85.7923 111.473 85.7053L111.227 85.2699ZM109.146 84.0689L108.897 83.6358C108.742 83.7251 108.646 83.8902 108.646 84.0689C108.646 84.2476 108.742 84.4127 108.897 84.502L109.146 84.0689ZM109.448 83.8951L109.698 83.4624C109.543 83.3728 109.353 83.3727 109.198 83.4621L109.448 83.8951ZM111.283 84.6645L110.982 84.8344L111.473 85.7053L111.774 85.5354L111.283 84.6645ZM111.477 84.8368L109.396 83.6359L108.897 84.502L110.977 85.7029L111.477 84.8368ZM109.396 84.502L109.698 84.3282L109.198 83.4621L108.897 83.6358L109.396 84.502ZM109.197 84.3278L111.278 85.5327L111.779 84.6673L109.698 83.4624L109.197 84.3278Z" fill="#1D1D1B" mask="url(#path-96-inside-33_1_369)"/>
<mask id="path-98-inside-34_1_369" fill="white">
<path d="M113.931 83.714L113.629 83.8839L111.549 82.6829L111.85 82.5092L113.931 83.714Z"/>
</mask>
<path d="M113.931 83.714L113.629 83.8839L111.549 82.6829L111.85 82.5092L113.931 83.714Z" fill="#1D1D1B"/>
<path d="M113.931 83.714L114.176 84.1495C114.333 84.0613 114.43 83.8962 114.431 83.7168C114.432 83.5374 114.336 83.3712 114.181 83.2813L113.931 83.714ZM113.629 83.8839L113.38 84.317C113.533 84.4054 113.721 84.4063 113.875 84.3194L113.629 83.8839ZM111.549 82.6829L111.299 82.2499C111.144 82.3392 111.049 82.5043 111.049 82.6829C111.049 82.8616 111.144 83.0267 111.299 83.116L111.549 82.6829ZM111.85 82.5092L112.1 82.0765C111.946 81.9869 111.755 81.9867 111.6 82.0761L111.85 82.5092ZM113.685 83.2785L113.384 83.4484L113.875 84.3194L114.176 84.1495L113.685 83.2785ZM113.879 83.4509L111.799 82.2499L111.299 83.116L113.38 84.317L113.879 83.4509ZM111.798 83.116L112.1 82.9422L111.6 82.0761L111.299 82.2499L111.798 83.116ZM111.599 82.9419L113.68 84.1467L114.181 83.2813L112.1 82.0765L111.599 82.9419Z" fill="#1D1D1B" mask="url(#path-98-inside-34_1_369)"/>
<mask id="path-100-inside-35_1_369" fill="white">
<path d="M122.331 78.863L122.03 79.0368L117.868 76.6348L118.165 76.4611L122.331 78.863Z"/>
</mask>
<path d="M122.331 78.863L122.03 79.0368L117.868 76.6348L118.165 76.4611L122.331 78.863Z" fill="#1D1D1B"/>
<path d="M122.331 78.863L122.581 79.2961C122.736 79.2067 122.831 79.0416 122.831 78.8629C122.831 78.6842 122.736 78.5191 122.581 78.4298L122.331 78.863ZM122.03 79.0368L121.78 79.4698C121.935 79.5591 122.125 79.5591 122.28 79.4698L122.03 79.0368ZM117.868 76.6348L117.616 76.2032C117.462 76.2931 117.368 76.4581 117.368 76.6362C117.369 76.8144 117.464 76.9788 117.618 77.0679L117.868 76.6348ZM118.165 76.4611L118.415 76.0279C118.26 75.9382 118.068 75.9388 117.913 76.0294L118.165 76.4611ZM122.081 78.4299L121.78 78.6037L122.28 79.4698L122.581 79.2961L122.081 78.4299ZM122.28 78.6037L118.118 76.2018L117.618 77.0679L121.78 79.4698L122.28 78.6037ZM118.12 77.0665L118.418 76.8927L117.913 76.0294L117.616 76.2032L118.12 77.0665ZM117.916 76.8942L122.081 79.2962L122.581 78.4298L118.415 76.0279L117.916 76.8942Z" fill="#1D1D1B" mask="url(#path-100-inside-35_1_369)"/>
<mask id="path-102-inside-36_1_369" fill="white">
<path d="M117.529 81.6336L117.232 81.8074L115.151 80.6064L115.448 80.4326L117.529 81.6336Z"/>
</mask>
<path d="M117.529 81.6336L117.232 81.8074L115.151 80.6064L115.448 80.4326L117.529 81.6336Z" fill="#1D1D1B"/>
<path d="M117.529 81.6336L117.782 82.0652C117.935 81.9753 118.03 81.8104 118.029 81.6322C118.029 81.454 117.934 81.2896 117.779 81.2005L117.529 81.6336ZM117.232 81.8074L116.982 82.2404C117.138 82.3302 117.329 82.3296 117.484 82.239L117.232 81.8074ZM115.151 80.6064L114.899 80.1747C114.745 80.2646 114.651 80.4296 114.651 80.6078C114.652 80.7859 114.747 80.9504 114.901 81.0394L115.151 80.6064ZM115.448 80.4326L115.698 79.9996C115.543 79.9098 115.351 79.9103 115.196 80.001L115.448 80.4326ZM117.277 81.2019L116.98 81.3757L117.484 82.239L117.782 82.0652L117.277 81.2019ZM117.482 81.3743L115.401 80.1733L114.901 81.0394L116.982 82.2404L117.482 81.3743ZM115.403 81.0381L115.701 80.8643L115.196 80.001L114.899 80.1747L115.403 81.0381ZM115.198 80.8657L117.279 82.0666L117.779 81.2005L115.698 79.9996L115.198 80.8657Z" fill="#1D1D1B" mask="url(#path-102-inside-36_1_369)"/>
<mask id="path-104-inside-37_1_369" fill="white">
<path d="M119.929 80.2492L119.628 80.423L117.547 79.222L117.848 79.0482L119.929 80.2492Z"/>
</mask>
<path d="M119.929 80.2492L119.628 80.423L117.547 79.222L117.848 79.0482L119.929 80.2492Z" fill="#1D1D1B"/>
<path d="M119.929 80.2492L120.179 80.6823C120.334 80.593 120.429 80.4279 120.429 80.2492C120.429 80.0705 120.334 79.9054 120.179 79.8161L119.929 80.2492ZM119.628 80.423L119.378 80.856C119.533 80.9453 119.723 80.9453 119.878 80.856L119.628 80.423ZM117.547 79.222L117.297 78.7889C117.142 78.8782 117.047 79.0433 117.047 79.222C117.047 79.4006 117.142 79.5657 117.297 79.655L117.547 79.222ZM117.848 79.0482L118.098 78.6152C117.943 78.5259 117.753 78.5259 117.598 78.6151L117.848 79.0482ZM119.679 79.8161L119.378 79.9899L119.878 80.856L120.179 80.6823L119.679 79.8161ZM119.878 79.9899L117.797 78.7889L117.297 79.655L119.378 80.856L119.878 79.9899ZM117.797 79.6551L118.098 79.4813L117.598 78.6151L117.297 78.7889L117.797 79.6551ZM117.598 79.4813L119.679 80.6822L120.179 79.8161L118.098 78.6152L117.598 79.4813Z" fill="#1D1D1B" mask="url(#path-104-inside-37_1_369)"/>
<mask id="path-106-inside-38_1_369" fill="white">
<path d="M128.332 75.3962L128.031 75.57L123.869 73.1642L124.17 72.9943L128.332 75.3962Z"/>
</mask>
<path d="M128.332 75.3962L128.031 75.57L123.869 73.1642L124.17 72.9943L128.332 75.3962Z" fill="#1D1D1B"/>
<path d="M128.332 75.3962L128.582 75.8293C128.736 75.74 128.832 75.5749 128.832 75.3962C128.832 75.2175 128.737 75.0525 128.582 74.9631L128.332 75.3962ZM128.031 75.57L127.78 76.0029C127.935 76.0923 128.126 76.0924 128.281 76.003L128.031 75.57ZM123.869 73.1642L123.623 72.7287C123.467 72.8169 123.37 72.9821 123.369 73.1616C123.368 73.341 123.463 73.5072 123.619 73.5971L123.869 73.1642ZM124.17 72.9943L124.42 72.5612C124.267 72.4728 124.078 72.4719 123.924 72.5588L124.17 72.9943ZM128.082 74.9631L127.781 75.1369L128.281 76.003L128.582 75.8293L128.082 74.9631ZM128.281 75.1371L124.119 72.7313L123.619 73.5971L127.78 76.0029L128.281 75.1371ZM124.115 73.5996L124.416 73.4297L123.924 72.5588L123.623 72.7287L124.115 73.5996ZM123.92 73.4273L128.082 75.8293L128.582 74.9631L124.42 72.5612L123.92 73.4273Z" fill="#1D1D1B" mask="url(#path-106-inside-38_1_369)"/>
<mask id="path-108-inside-39_1_369" fill="white">
<path d="M123.529 78.1691L123.231 78.3429L121.15 77.1381L121.448 76.9681L123.529 78.1691Z"/>
</mask>
<path d="M123.529 78.1691L123.231 78.3429L121.15 77.1381L121.448 76.9681L123.529 78.1691Z" fill="#1D1D1B"/>
<path d="M123.529 78.1691L123.781 78.6008C123.935 78.5109 124.029 78.3459 124.029 78.1677C124.028 77.9896 123.933 77.8251 123.778 77.7361L123.529 78.1691ZM123.231 78.3429L122.981 78.7756C123.136 78.8657 123.328 78.8653 123.484 78.7745L123.231 78.3429ZM121.15 77.1381L120.902 76.704C120.747 76.7927 120.651 76.9578 120.65 77.1367C120.65 77.3156 120.745 77.4811 120.9 77.5708L121.15 77.1381ZM121.448 76.9681L121.698 76.5351C121.544 76.4462 121.354 76.4458 121.2 76.534L121.448 76.9681ZM123.276 77.7375L122.979 77.9112L123.484 78.7745L123.781 78.6008L123.276 77.7375ZM123.482 77.9102L121.401 76.7054L120.9 77.5708L122.981 78.7756L123.482 77.9102ZM121.399 77.5721L121.696 77.4022L121.2 76.534L120.902 76.704L121.399 77.5721ZM121.198 77.4012L123.279 78.6022L123.778 77.7361L121.698 76.5351L121.198 77.4012Z" fill="#1D1D1B" mask="url(#path-108-inside-39_1_369)"/>
<mask id="path-110-inside-40_1_369" fill="white">
<path d="M125.93 76.7824L125.629 76.9562L123.548 75.7552L123.849 75.5814L125.93 76.7824Z"/>
</mask>
<path d="M125.93 76.7824L125.629 76.9562L123.548 75.7552L123.849 75.5814L125.93 76.7824Z" fill="#1D1D1B"/>
<path d="M125.93 76.7824L126.18 77.2155C126.334 77.1262 126.43 76.9611 126.43 76.7824C126.43 76.6037 126.334 76.4386 126.18 76.3493L125.93 76.7824ZM125.629 76.9562L125.379 77.3892C125.533 77.4785 125.724 77.4785 125.878 77.3892L125.629 76.9562ZM123.548 75.7552L123.298 75.3221C123.143 75.4114 123.048 75.5765 123.048 75.7552C123.048 75.9338 123.143 76.0989 123.298 76.1882L123.548 75.7552ZM123.849 75.5814L124.099 75.1484C123.944 75.0591 123.753 75.0591 123.599 75.1484L123.849 75.5814ZM125.68 76.3493L125.379 76.5231L125.878 77.3892L126.18 77.2155L125.68 76.3493ZM125.878 76.5231L123.798 75.3221L123.298 76.1882L125.379 77.3892L125.878 76.5231ZM123.798 76.1883L124.099 76.0145L123.599 75.1484L123.298 75.3221L123.798 76.1883ZM123.599 76.0145L125.68 77.2154L126.18 76.3493L124.099 75.1484L123.599 76.0145Z" fill="#1D1D1B" mask="url(#path-110-inside-40_1_369)"/>
<mask id="path-112-inside-41_1_369" fill="white">
<path d="M134.328 71.9352L134.027 72.109L129.865 69.7032L130.166 69.5294L134.328 71.9352Z"/>
</mask>
<path d="M134.328 71.9352L134.027 72.109L129.865 69.7032L130.166 69.5294L134.328 71.9352Z" fill="#1D1D1B"/>
<path d="M134.328 71.9352L134.578 72.3683C134.733 72.279 134.828 72.114 134.828 71.9354C134.828 71.7568 134.733 71.5917 134.578 71.5023L134.328 71.9352ZM134.027 72.109L133.777 72.5419C133.932 72.6313 134.122 72.6314 134.277 72.5421L134.027 72.109ZM129.865 69.7032L129.615 69.2701C129.461 69.3594 129.365 69.5244 129.365 69.703C129.365 69.8816 129.46 70.0467 129.615 70.1361L129.865 69.7032ZM130.166 69.5294L130.417 69.0965C130.262 69.0071 130.071 69.007 129.916 69.0964L130.166 69.5294ZM134.078 71.5022L133.777 71.6759L134.277 72.5421L134.578 72.3683L134.078 71.5022ZM134.277 71.6761L130.115 69.2703L129.615 70.1361L133.777 72.5419L134.277 71.6761ZM130.115 70.1363L130.416 69.9625L129.916 69.0964L129.615 69.2701L130.115 70.1363ZM129.916 69.9623L134.078 72.3681L134.578 71.5023L130.417 69.0965L129.916 69.9623Z" fill="#1D1D1B" mask="url(#path-112-inside-41_1_369)"/>
<mask id="path-114-inside-42_1_369" fill="white">
<path d="M129.532 74.7058L129.231 74.8757L127.15 73.6747L127.451 73.501L129.532 74.7058Z"/>
</mask>
<path d="M129.532 74.7058L129.231 74.8757L127.15 73.6747L127.451 73.501L129.532 74.7058Z" fill="#1D1D1B"/>
<path d="M129.532 74.7058L129.777 75.1413C129.934 75.0531 130.031 74.888 130.032 74.7086C130.033 74.5292 129.937 74.363 129.782 74.2731L129.532 74.7058ZM129.231 74.8757L128.981 75.3088C129.134 75.3972 129.322 75.3981 129.476 75.3112L129.231 74.8757ZM127.15 73.6747L126.9 73.2417C126.745 73.331 126.65 73.4961 126.65 73.6747C126.65 73.8534 126.745 74.0185 126.9 74.1078L127.15 73.6747ZM127.451 73.501L127.701 73.0683C127.547 72.9787 127.356 72.9785 127.201 73.0679L127.451 73.501ZM129.286 74.2703L128.985 74.4403L129.476 75.3112L129.777 75.1413L129.286 74.2703ZM129.48 74.4427L127.4 73.2417L126.9 74.1078L128.981 75.3088L129.48 74.4427ZM127.4 74.1078L127.701 73.934L127.201 73.0679L126.9 73.2417L127.4 74.1078ZM127.2 73.9337L129.281 75.1385L129.782 74.2731L127.701 73.0683L127.2 73.9337Z" fill="#1D1D1B" mask="url(#path-114-inside-42_1_369)"/>
<mask id="path-116-inside-43_1_369" fill="white">
<path d="M131.929 73.3214L131.632 73.4913L129.547 72.2904L129.848 72.1166L131.929 73.3214Z"/>
</mask>
<path d="M131.929 73.3214L131.632 73.4913L129.547 72.2904L129.848 72.1166L131.929 73.3214Z" fill="#1D1D1B"/>
<path d="M131.929 73.3214L132.178 73.7555C132.333 73.6667 132.429 73.5017 132.429 73.3228C132.43 73.1439 132.335 72.9784 132.18 72.8887L131.929 73.3214ZM131.632 73.4913L131.383 73.9246C131.537 74.0133 131.726 74.0136 131.88 73.9254L131.632 73.4913ZM129.547 72.2904L129.297 71.8573C129.143 71.9466 129.047 72.1118 129.047 72.2905C129.047 72.4693 129.143 72.6344 129.298 72.7236L129.547 72.2904ZM129.848 72.1166L130.099 71.6839C129.944 71.5943 129.753 71.5941 129.599 71.6835L129.848 72.1166ZM131.681 72.8873L131.384 73.0572L131.88 73.9254L132.178 73.7555L131.681 72.8873ZM131.882 73.0581L129.797 71.8571L129.298 72.7236L131.383 73.9246L131.882 73.0581ZM129.797 72.7234L130.098 72.5496L129.599 71.6835L129.297 71.8573L129.797 72.7234ZM129.598 72.5493L131.679 73.7541L132.18 72.8887L130.099 71.6839L129.598 72.5493Z" fill="#1D1D1B" mask="url(#path-116-inside-43_1_369)"/>
<mask id="path-118-inside-44_1_369" fill="white">
<path d="M140.33 68.4666L140.029 68.6404L135.867 66.2385L136.169 66.0647L140.33 68.4666Z"/>
</mask>
<path d="M140.33 68.4666L140.029 68.6404L135.867 66.2385L136.169 66.0647L140.33 68.4666Z" fill="#1D1D1B"/>
<path d="M140.33 68.4666L140.58 68.8997C140.735 68.8104 140.83 68.6453 140.83 68.4666C140.83 68.288 140.735 68.1229 140.58 68.0336L140.33 68.4666ZM140.029 68.6404L139.779 69.0735C139.934 69.1627 140.124 69.1627 140.279 69.0735L140.029 68.6404ZM135.867 66.2385L135.618 65.8054C135.463 65.8947 135.367 66.0598 135.367 66.2385C135.367 66.4171 135.463 66.5822 135.618 66.6715L135.867 66.2385ZM136.169 66.0647L136.418 65.6316C136.264 65.5424 136.073 65.5424 135.919 65.6316L136.169 66.0647ZM140.08 68.0336L139.779 68.2073L140.279 69.0735L140.58 68.8997L140.08 68.0336ZM140.279 68.2074L136.117 65.8054L135.618 66.6715L139.779 69.0735L140.279 68.2074ZM136.117 66.6715L136.418 66.4978L135.919 65.6316L135.618 65.8054L136.117 66.6715ZM135.919 66.4977L140.08 68.8997L140.58 68.0336L136.418 65.6316L135.919 66.4977Z" fill="#1D1D1B" mask="url(#path-118-inside-44_1_369)"/>
<mask id="path-120-inside-45_1_369" fill="white">
<path d="M135.531 71.2382L135.23 71.412L133.149 70.211L133.45 70.0372L135.531 71.2382Z"/>
</mask>
<path d="M135.531 71.2382L135.23 71.412L133.149 70.211L133.45 70.0372L135.531 71.2382Z" fill="#1D1D1B"/>
<path d="M135.531 71.2382L135.781 71.6713C135.936 71.582 136.031 71.4169 136.031 71.2382C136.031 71.0596 135.936 70.8945 135.781 70.8052L135.531 71.2382ZM135.23 71.412L134.98 71.845C135.135 71.9343 135.325 71.9343 135.48 71.845L135.23 71.412ZM133.149 70.211L132.899 69.7779C132.744 69.8672 132.649 70.0323 132.649 70.211C132.649 70.3897 132.744 70.5547 132.899 70.6441L133.149 70.211ZM133.45 70.0372L133.7 69.6042C133.545 69.5149 133.355 69.5149 133.2 69.6042L133.45 70.0372ZM135.281 70.8051L134.98 70.9789L135.48 71.845L135.781 71.6713L135.281 70.8051ZM135.48 70.9789L133.399 69.778L132.899 70.6441L134.98 71.845L135.48 70.9789ZM133.399 70.6441L133.7 70.4703L133.2 69.6042L132.899 69.7779L133.399 70.6441ZM133.2 70.4703L135.281 71.6713L135.781 70.8052L133.7 69.6042L133.2 70.4703Z" fill="#1D1D1B" mask="url(#path-120-inside-45_1_369)"/>
<mask id="path-122-inside-46_1_369" fill="white">
<path d="M136.733 70.5483L136.432 70.722L134.351 69.5172L134.648 69.3473L136.733 70.5483Z"/>
</mask>
<path d="M136.733 70.5483L136.432 70.722L134.351 69.5172L134.648 69.3473L136.733 70.5483Z" fill="#1D1D1B"/>
<path d="M136.733 70.5483L136.983 70.9813C137.138 70.892 137.233 70.7268 137.233 70.5481C137.233 70.3693 137.137 70.2042 136.982 70.115L136.733 70.5483ZM136.432 70.722L136.181 71.1547C136.336 71.2443 136.527 71.2445 136.682 71.1551L136.432 70.722ZM134.351 69.5172L134.103 69.0831C133.947 69.1719 133.851 69.3369 133.851 69.5158C133.85 69.6947 133.945 69.8603 134.1 69.9499L134.351 69.5172ZM134.648 69.3473L134.898 68.914C134.744 68.8253 134.554 68.825 134.4 68.9132L134.648 69.3473ZM136.483 70.1152L136.182 70.289L136.682 71.1551L136.983 70.9813L136.483 70.1152ZM136.682 70.2893L134.601 69.0845L134.1 69.9499L136.181 71.1547L136.682 70.2893ZM134.599 69.9513L134.896 69.7814L134.4 68.9132L134.103 69.0831L134.599 69.9513ZM134.399 69.7805L136.483 70.9815L136.982 70.115L134.898 68.914L134.399 69.7805Z" fill="#1D1D1B" mask="url(#path-122-inside-46_1_369)"/>
<mask id="path-124-inside-47_1_369" fill="white">
<path d="M137.927 69.852L137.63 70.0257L135.549 68.8248L135.846 68.651L137.927 69.852Z"/>
</mask>
<path d="M137.927 69.852L137.63 70.0257L135.549 68.8248L135.846 68.651L137.927 69.852Z" fill="#1D1D1B"/>
<path d="M137.927 69.852L138.18 70.2836C138.333 70.1937 138.428 70.0287 138.427 69.8506C138.427 69.6724 138.331 69.508 138.177 69.4189L137.927 69.852ZM137.63 70.0257L137.38 70.4588C137.536 70.5486 137.727 70.548 137.882 70.4574L137.63 70.0257ZM135.549 68.8248L135.297 68.3931C135.143 68.483 135.049 68.648 135.049 68.8262C135.05 69.0043 135.145 69.1688 135.299 69.2578L135.549 68.8248ZM135.846 68.651L136.096 68.2179C135.941 68.1282 135.749 68.1287 135.594 68.2193L135.846 68.651ZM137.675 69.4203L137.378 69.5941L137.882 70.4574L138.18 70.2836L137.675 69.4203ZM137.88 69.5927L135.799 68.3917L135.299 69.2578L137.38 70.4588L137.88 69.5927ZM135.801 69.2564L136.099 69.0827L135.594 68.2193L135.297 68.3931L135.801 69.2564ZM135.596 69.0841L137.677 70.285L138.177 69.4189L136.096 68.2179L135.596 69.0841Z" fill="#1D1D1B" mask="url(#path-124-inside-47_1_369)"/>
<mask id="path-126-inside-48_1_369" fill="white">
<path d="M139.128 69.1613L138.831 69.3351L136.746 68.1302L137.047 67.9603L139.128 69.1613Z"/>
</mask>
<path d="M139.128 69.1613L138.831 69.3351L136.746 68.1302L137.047 67.9603L139.128 69.1613Z" fill="#1D1D1B"/>
<path d="M139.128 69.1613L139.381 69.593C139.535 69.503 139.629 69.3381 139.628 69.1599C139.628 68.9817 139.533 68.8173 139.378 68.7282L139.128 69.1613ZM138.831 69.3351L138.581 69.768C138.736 69.8579 138.928 69.8574 139.083 69.7667L138.831 69.3351ZM136.746 68.1302L136.501 67.6948C136.344 67.783 136.247 67.9482 136.246 68.1277C136.245 68.3071 136.341 68.4733 136.496 68.5631L136.746 68.1302ZM137.047 67.9603L137.297 67.5273C137.144 67.4389 136.956 67.438 136.802 67.5249L137.047 67.9603ZM138.876 68.7296L138.579 68.9034L139.083 69.7667L139.381 69.593L138.876 68.7296ZM139.081 68.9022L136.997 67.6973L136.496 68.5631L138.581 69.768L139.081 68.9022ZM136.992 68.5657L137.293 68.3958L136.802 67.5249L136.501 67.6948L136.992 68.5657ZM136.798 68.3934L138.878 69.5944L139.378 68.7282L137.297 67.5273L136.798 68.3934Z" fill="#1D1D1B" mask="url(#path-126-inside-48_1_369)"/>
<mask id="path-128-inside-49_1_369" fill="white">
<path d="M146.327 65.0031L146.029 65.1769L141.864 62.7711L142.165 62.6012L146.327 65.0031Z"/>
</mask>
<path d="M146.327 65.0031L146.029 65.1769L141.864 62.7711L142.165 62.6012L146.327 65.0031Z" fill="#1D1D1B"/>
<path d="M146.327 65.0031L146.579 65.4348C146.733 65.3449 146.827 65.1799 146.827 65.0017C146.826 64.8236 146.731 64.6591 146.577 64.5701L146.327 65.0031ZM146.029 65.1769L145.779 65.6099C145.935 65.6997 146.127 65.6992 146.282 65.6086L146.029 65.1769ZM141.864 62.7711L141.618 62.3356C141.462 62.4239 141.365 62.5891 141.364 62.7686C141.363 62.9481 141.458 63.1143 141.614 63.2041L141.864 62.7711ZM142.165 62.6012L142.415 62.1681C142.262 62.0797 142.073 62.0788 141.919 62.1657L142.165 62.6012ZM146.074 64.5715L145.777 64.7453L146.282 65.6086L146.579 65.4348L146.074 64.5715ZM146.279 64.7439L142.114 62.3381L141.614 63.2041L145.779 65.6099L146.279 64.7439ZM142.109 63.2066L142.411 63.0367L141.919 62.1657L141.618 62.3356L142.109 63.2066ZM141.915 63.0342L146.077 65.4362L146.577 64.5701L142.415 62.1681L141.915 63.0342Z" fill="#1D1D1B" mask="url(#path-128-inside-49_1_369)"/>
<mask id="path-130-inside-50_1_369" fill="white">
<path d="M141.529 67.7746L141.228 67.9483L139.147 66.7474L139.448 66.5736L141.529 67.7746Z"/>
</mask>
<path d="M141.529 67.7746L141.228 67.9483L139.147 66.7474L139.448 66.5736L141.529 67.7746Z" fill="#1D1D1B"/>
<path d="M141.529 67.7746L141.779 68.2076C141.933 68.1183 142.029 67.9533 142.029 67.7746C142.029 67.5959 141.933 67.4308 141.779 67.3415L141.529 67.7746ZM141.228 67.9483L140.978 68.3814C141.132 68.4707 141.323 68.4707 141.478 68.3814L141.228 67.9483ZM139.147 66.7474L138.897 66.3143C138.742 66.4036 138.647 66.5687 138.647 66.7474C138.647 66.926 138.742 67.0911 138.897 67.1804L139.147 66.7474ZM139.448 66.5736L139.698 66.1406C139.543 66.0513 139.353 66.0513 139.198 66.1405L139.448 66.5736ZM141.279 67.3415L140.978 67.5153L141.478 68.3814L141.779 68.2076L141.279 67.3415ZM141.478 67.5153L139.397 66.3143L138.897 67.1804L140.978 68.3814L141.478 67.5153ZM139.397 67.1804L139.698 67.0067L139.198 66.1405L138.897 66.3143L139.397 67.1804ZM139.198 67.0067L141.279 68.2076L141.779 67.3415L139.698 66.1406L139.198 67.0067Z" fill="#1D1D1B" mask="url(#path-130-inside-50_1_369)"/>
<mask id="path-132-inside-51_1_369" fill="white">
<path d="M142.729 67.079L142.428 67.2528L140.347 66.0518L140.648 65.8781L142.729 67.079Z"/>
</mask>
<path d="M142.729 67.079L142.428 67.2528L140.347 66.0518L140.648 65.8781L142.729 67.079Z" fill="#1D1D1B"/>
<path d="M142.729 67.079L142.979 67.5121C143.134 67.4228 143.229 67.2577 143.229 67.079C143.229 66.9004 143.134 66.7353 142.979 66.646L142.729 67.079ZM142.428 67.2528L142.178 67.6858C142.333 67.7751 142.523 67.7751 142.678 67.6859L142.428 67.2528ZM140.347 66.0518L140.097 65.6188C139.943 65.7081 139.847 65.8731 139.847 66.0518C139.847 66.2305 139.942 66.3956 140.097 66.4849L140.347 66.0518ZM140.648 65.8781L140.898 65.445C140.744 65.3557 140.553 65.3557 140.398 65.445L140.648 65.8781ZM142.479 66.646L142.178 66.8197L142.678 67.6859L142.979 67.5121L142.479 66.646ZM142.678 66.8197L140.597 65.6188L140.097 66.4849L142.178 67.6858L142.678 66.8197ZM140.597 66.4849L140.898 66.3111L140.398 65.445L140.097 65.6188L140.597 66.4849ZM140.398 66.3111L142.479 67.5121L142.979 66.646L140.898 65.445L140.398 66.3111Z" fill="#1D1D1B" mask="url(#path-132-inside-51_1_369)"/>
<mask id="path-134-inside-52_1_369" fill="white">
<path d="M143.929 66.3893L143.628 66.5631L141.547 65.3621L141.845 65.1884L143.929 66.3893Z"/>
</mask>
<path d="M143.929 66.3893L143.628 66.5631L141.547 65.3621L141.845 65.1884L143.929 66.3893Z" fill="#1D1D1B"/>
<path d="M143.929 66.3893L144.179 66.8224C144.334 66.733 144.429 66.5679 144.429 66.3891C144.429 66.2104 144.334 66.0453 144.179 65.9561L143.929 66.3893ZM143.628 66.5631L143.378 66.9961C143.533 67.0854 143.724 67.0854 143.878 66.9962L143.628 66.5631ZM141.547 65.3621L141.295 64.9305C141.141 65.0204 141.047 65.1854 141.047 65.3635C141.048 65.5417 141.143 65.7061 141.297 65.7952L141.547 65.3621ZM141.845 65.1884L142.094 64.7551C141.939 64.6655 141.747 64.6661 141.592 64.7567L141.845 65.1884ZM143.679 65.9563L143.378 66.13L143.878 66.9962L144.179 66.8224L143.679 65.9563ZM143.878 66.13L141.797 64.9291L141.297 65.7952L143.378 66.9961L143.878 66.13ZM141.8 65.7938L142.097 65.62L141.592 64.7567L141.295 64.9305L141.8 65.7938ZM141.595 65.6216L143.68 66.8226L144.179 65.9561L142.094 64.7551L141.595 65.6216Z" fill="#1D1D1B" mask="url(#path-134-inside-52_1_369)"/>
<mask id="path-136-inside-53_1_369" fill="white">
<path d="M145.127 65.6976L144.83 65.8675L142.749 64.6666L143.047 64.4928L145.127 65.6976Z"/>
</mask>
<path d="M145.127 65.6976L144.83 65.8675L142.749 64.6666L143.047 64.4928L145.127 65.6976Z" fill="#1D1D1B"/>
<path d="M145.127 65.6976L145.376 66.1317C145.531 66.0429 145.627 65.8779 145.627 65.699C145.628 65.5201 145.533 65.3546 145.378 65.2649L145.127 65.6976ZM144.83 65.8675L144.58 66.3006C144.734 66.3895 144.924 66.3899 145.078 66.3016L144.83 65.8675ZM142.749 64.6666L142.497 64.2349C142.343 64.3248 142.249 64.4898 142.249 64.668C142.25 64.8461 142.345 65.0106 142.499 65.0996L142.749 64.6666ZM143.047 64.4928L143.297 64.0601C143.141 63.97 142.949 63.9704 142.794 64.0611L143.047 64.4928ZM144.879 65.2635L144.582 65.4334L145.078 66.3016L145.376 66.1317L144.879 65.2635ZM145.08 65.4345L142.999 64.2335L142.499 65.0996L144.58 66.3006L145.08 65.4345ZM143.002 65.0982L143.299 64.9245L142.794 64.0611L142.497 64.2349L143.002 65.0982ZM142.796 64.9255L144.877 66.1303L145.378 65.2649L143.297 64.0601L142.796 64.9255Z" fill="#1D1D1B" mask="url(#path-136-inside-53_1_369)"/>
<mask id="path-138-inside-54_1_369" fill="white">
<path d="M152.329 61.5356L152.031 61.7093L147.87 59.3035L148.167 59.1298L152.329 61.5356Z"/>
</mask>
<path d="M152.329 61.5356L152.031 61.7093L147.87 59.3035L148.167 59.1298L152.329 61.5356Z" fill="#1D1D1B"/>
<path d="M152.329 61.5356L152.581 61.9672C152.735 61.8773 152.829 61.7125 152.829 61.5344C152.828 61.3562 152.733 61.1918 152.579 61.1027L152.329 61.5356ZM152.031 61.7093L151.781 62.1422C151.937 62.2321 152.129 62.2317 152.284 62.141L152.031 61.7093ZM147.87 59.3035L147.617 58.8719C147.464 58.9618 147.369 59.1266 147.37 59.3047C147.37 59.4828 147.465 59.6473 147.619 59.7364L147.87 59.3035ZM148.167 59.1298L148.417 58.6969C148.262 58.607 148.07 58.6074 147.915 58.6981L148.167 59.1298ZM152.076 61.1039L151.779 61.2777L152.284 62.141L152.581 61.9672L152.076 61.1039ZM152.282 61.2765L148.12 58.8707L147.619 59.7364L151.781 62.1422L152.282 61.2765ZM148.122 59.7352L148.419 59.5614L147.915 58.6981L147.617 58.8719L148.122 59.7352ZM147.917 59.5626L152.078 61.9684L152.579 61.1027L148.417 58.6969L147.917 59.5626Z" fill="#1D1D1B" mask="url(#path-138-inside-54_1_369)"/>
<mask id="path-140-inside-55_1_369" fill="white">
<path d="M149.934 62.9218L149.633 63.0955L147.552 61.8907L147.853 61.7169L149.934 62.9218Z"/>
</mask>
<path d="M149.934 62.9218L149.633 63.0955L147.552 61.8907L147.853 61.7169L149.934 62.9218Z" fill="#1D1D1B"/>
<path d="M149.934 62.9218L150.184 63.3548C150.338 63.2656 150.434 63.1007 150.434 62.9221C150.434 62.7436 150.339 62.5785 150.184 62.4891L149.934 62.9218ZM149.633 63.0955L149.382 63.5282C149.537 63.6178 149.728 63.618 149.883 63.5286L149.633 63.0955ZM147.552 61.8907L147.302 61.4576C147.147 61.5469 147.052 61.7118 147.052 61.8903C147.052 62.0689 147.147 62.2339 147.301 62.3234L147.552 61.8907ZM147.853 61.7169L148.103 61.2842C147.949 61.1946 147.758 61.1945 147.603 61.2839L147.853 61.7169ZM149.684 62.4887L149.383 62.6625L149.883 63.5286L150.184 63.3548L149.684 62.4887ZM149.883 62.6628L147.802 61.458L147.301 62.3234L149.382 63.5282L149.883 62.6628ZM147.802 62.3238L148.103 62.15L147.603 61.2839L147.302 61.4576L147.802 62.3238ZM147.602 62.1496L149.683 63.3545L150.184 62.4891L148.103 61.2842L147.602 62.1496Z" fill="#1D1D1B" mask="url(#path-140-inside-55_1_369)"/>
<mask id="path-142-inside-56_1_369" fill="white">
<path d="M158.335 58.0708L158.034 58.2445L153.872 55.8426L154.17 55.6688L158.335 58.0708Z"/>
</mask>
<path d="M158.335 58.0708L158.034 58.2445L153.872 55.8426L154.17 55.6688L158.335 58.0708Z" fill="#1D1D1B"/>
<path d="M158.335 58.0708L158.585 58.5038C158.74 58.4145 158.835 58.2494 158.835 58.0707C158.835 57.892 158.74 57.7269 158.585 57.6376L158.335 58.0708ZM158.034 58.2445L157.784 58.6776C157.939 58.7669 158.129 58.7669 158.284 58.6776L158.034 58.2445ZM153.872 55.8426L153.62 55.4109C153.466 55.5009 153.372 55.6658 153.372 55.844C153.373 56.0222 153.468 56.1866 153.622 56.2757L153.872 55.8426ZM154.17 55.6688L154.419 55.2357C154.264 55.146 154.072 55.1466 153.917 55.2372L154.17 55.6688ZM158.085 57.6377L157.784 57.8115L158.284 58.6776L158.585 58.5038L158.085 57.6377ZM158.284 57.8115L154.122 55.4095L153.622 56.2757L157.784 58.6776L158.284 57.8115ZM154.125 56.2743L154.422 56.1005L153.917 55.2372L153.62 55.4109L154.125 56.2743ZM153.92 56.102L158.086 58.5039L158.585 57.6376L154.419 55.2357L153.92 56.102Z" fill="#1D1D1B" mask="url(#path-142-inside-56_1_369)"/>
<mask id="path-144-inside-57_1_369" fill="white">
<path d="M153.533 60.8422L153.235 61.016L151.151 59.815L151.452 59.6412L153.533 60.8422Z"/>
</mask>
<path d="M153.533 60.8422L153.235 61.016L151.151 59.815L151.452 59.6412L153.533 60.8422Z" fill="#1D1D1B"/>
<path d="M153.533 60.8422L153.785 61.2739C153.939 61.184 154.033 61.019 154.033 60.8408C154.032 60.6627 153.937 60.4982 153.783 60.4092L153.533 60.8422ZM153.235 61.016L152.986 61.4492C153.141 61.5388 153.333 61.5382 153.488 61.4476L153.235 61.016ZM151.151 59.815L150.901 59.3819C150.746 59.4713 150.651 59.6365 150.651 59.8152C150.651 59.9939 150.746 60.159 150.901 60.2483L151.151 59.815ZM151.452 59.6412L151.702 59.2082C151.547 59.1189 151.357 59.1189 151.202 59.2082L151.452 59.6412ZM153.28 60.4105L152.983 60.5843L153.488 61.4476L153.785 61.2739L153.28 60.4105ZM153.485 60.5827L151.4 59.3818L150.901 60.2483L152.986 61.4492L153.485 60.5827ZM151.401 60.2481L151.702 60.0743L151.202 59.2082L150.901 59.3819L151.401 60.2481ZM151.202 60.0743L153.283 61.2753L153.783 60.4092L151.702 59.2082L151.202 60.0743Z" fill="#1D1D1B" mask="url(#path-144-inside-57_1_369)"/>
<mask id="path-146-inside-58_1_369" fill="white">
<path d="M155.931 59.4561L155.63 59.6299L153.549 58.4289L153.85 58.2551L155.931 59.4561Z"/>
</mask>
<path d="M155.931 59.4561L155.63 59.6299L153.549 58.4289L153.85 58.2551L155.931 59.4561Z" fill="#1D1D1B"/>
<path d="M155.931 59.4561L156.181 59.8892C156.336 59.7999 156.431 59.6348 156.431 59.4561C156.431 59.2774 156.336 59.1123 156.181 59.023L155.931 59.4561ZM155.63 59.6299L155.38 60.0629C155.535 60.1522 155.725 60.1522 155.88 60.0629L155.63 59.6299ZM153.549 58.4289L153.299 57.9958C153.145 58.0851 153.049 58.2502 153.049 58.4289C153.049 58.6076 153.145 58.7726 153.299 58.862L153.549 58.4289ZM153.85 58.2551L154.1 57.8221C153.946 57.7328 153.755 57.7328 153.601 57.8221L153.85 58.2551ZM155.681 59.023L155.38 59.1968L155.88 60.0629L156.181 59.8892L155.681 59.023ZM155.88 59.1968L153.799 57.9958L153.299 58.862L155.38 60.0629L155.88 59.1968ZM153.799 58.862L154.1 58.6882L153.601 57.8221L153.299 57.9958L153.799 58.862ZM153.601 58.6882L155.681 59.8891L156.181 59.023L154.1 57.8221L153.601 58.6882Z" fill="#1D1D1B" mask="url(#path-146-inside-58_1_369)"/>
<mask id="path-148-inside-59_1_369" fill="white">
<path d="M164.334 54.6053L164.033 54.7791L159.871 52.3733L160.172 52.2034L164.334 54.6053Z"/>
</mask>
<path d="M164.334 54.6053L164.033 54.7791L159.871 52.3733L160.172 52.2034L164.334 54.6053Z" fill="#1D1D1B"/>
<path d="M164.334 54.6053L164.584 55.0384C164.738 54.9491 164.834 54.784 164.834 54.6053C164.834 54.4267 164.738 54.2616 164.584 54.1723L164.334 54.6053ZM164.033 54.7791L163.782 55.212C163.937 55.3014 164.128 55.3015 164.283 55.2121L164.033 54.7791ZM159.871 52.3733L159.625 51.9378C159.469 52.026 159.372 52.1912 159.371 52.3707C159.37 52.5501 159.465 52.7163 159.621 52.8062L159.871 52.3733ZM160.172 52.2034L160.422 51.7703C160.269 51.6819 160.08 51.681 159.926 51.7679L160.172 52.2034ZM164.084 54.1722L163.783 54.346L164.283 55.2121L164.584 55.0384L164.084 54.1722ZM164.283 54.3462L160.121 51.9404L159.621 52.8062L163.782 55.212L164.283 54.3462ZM160.117 52.8087L160.418 52.6388L159.926 51.7679L159.625 51.9378L160.117 52.8087ZM159.922 52.6364L164.084 55.0384L164.584 54.1723L160.422 51.7703L159.922 52.6364Z" fill="#1D1D1B" mask="url(#path-148-inside-59_1_369)"/>
<mask id="path-150-inside-60_1_369" fill="white">
<path d="M159.532 57.3767L159.235 57.5505L157.154 56.3496L157.451 56.1758L159.532 57.3767Z"/>
</mask>
<path d="M159.532 57.3767L159.235 57.5505L157.154 56.3496L157.451 56.1758L159.532 57.3767Z" fill="#1D1D1B"/>
<path d="M159.532 57.3767L159.784 57.8084C159.938 57.7185 160.032 57.5535 160.032 57.3754C160.031 57.1972 159.936 57.0328 159.782 56.9437L159.532 57.3767ZM159.235 57.5505L158.985 57.9836C159.14 58.0733 159.332 58.0728 159.487 57.9822L159.235 57.5505ZM157.154 56.3496L156.901 55.9179C156.748 56.0078 156.653 56.1728 156.654 56.3509C156.654 56.5291 156.75 56.6935 156.904 56.7826L157.154 56.3496ZM157.451 56.1758L157.701 55.7427C157.545 55.653 157.354 55.6535 157.199 55.7441L157.451 56.1758ZM159.28 56.9451L158.982 57.1189L159.487 57.9822L159.784 57.8084L159.28 56.9451ZM159.485 57.1175L157.404 55.9165L156.904 56.7826L158.985 57.9836L159.485 57.1175ZM157.406 56.7812L157.703 56.6074L157.199 55.7441L156.901 55.9179L157.406 56.7812ZM157.201 56.6088L159.282 57.8098L159.782 56.9437L157.701 55.7427L157.201 56.6088Z" fill="#1D1D1B" mask="url(#path-150-inside-60_1_369)"/>
<mask id="path-152-inside-61_1_369" fill="white">
<path d="M161.932 55.9922L161.63 56.166L159.55 54.965L159.851 54.7913L161.932 55.9922Z"/>
</mask>
<path d="M161.932 55.9922L161.63 56.166L159.55 54.965L159.851 54.7913L161.932 55.9922Z" fill="#1D1D1B"/>
<path d="M161.932 55.9922L162.181 56.4253C162.336 56.336 162.432 56.1709 162.432 55.9922C162.432 55.8136 162.336 55.6485 162.182 55.5592L161.932 55.9922ZM161.63 56.166L161.381 56.5991C161.535 56.6883 161.726 56.6883 161.88 56.5991L161.63 56.166ZM159.55 54.965L159.3 54.532C159.145 54.6213 159.05 54.7864 159.05 54.965C159.05 55.1437 159.145 55.3088 159.3 55.3981L159.55 54.965ZM159.851 54.7913L160.101 54.3582C159.946 54.2689 159.755 54.2689 159.601 54.3582L159.851 54.7913ZM161.682 55.5592L161.381 55.7329L161.88 56.5991L162.181 56.4253L161.682 55.5592ZM161.88 55.733L159.799 54.532L159.3 55.3981L161.381 56.5991L161.88 55.733ZM159.799 55.3981L160.101 55.2243L159.601 54.3582L159.3 54.532L159.799 55.3981ZM159.601 55.2243L161.682 56.4253L162.182 55.5592L160.101 54.3582L159.601 55.2243Z" fill="#1D1D1B" mask="url(#path-152-inside-61_1_369)"/>
<mask id="path-154-inside-62_1_369" fill="white">
<path d="M170.329 51.1437L170.028 51.3175L165.866 48.9117L166.167 48.7379L170.329 51.1437Z"/>
</mask>
<path d="M170.329 51.1437L170.028 51.3175L165.866 48.9117L166.167 48.7379L170.329 51.1437Z" fill="#1D1D1B"/>
<path d="M170.329 51.1437L170.579 51.5768C170.734 51.4875 170.829 51.3225 170.829 51.1439C170.829 50.9653 170.734 50.8002 170.579 50.7108L170.329 51.1437ZM170.028 51.3175L169.778 51.7504C169.932 51.8398 170.123 51.8399 170.278 51.7506L170.028 51.3175ZM165.866 48.9117L165.616 48.4786C165.462 48.5679 165.366 48.7329 165.366 48.9115C165.366 49.0901 165.461 49.2552 165.616 49.3446L165.866 48.9117ZM166.167 48.7379L166.418 48.305C166.263 48.2156 166.072 48.2155 165.917 48.3048L166.167 48.7379ZM170.079 50.7106L169.778 50.8844L170.278 51.7506L170.579 51.5768L170.079 50.7106ZM170.278 50.8846L166.116 48.4788L165.616 49.3446L169.778 51.7504L170.278 50.8846ZM166.116 49.3448L166.417 49.171L165.917 48.3048L165.616 48.4786L166.116 49.3448ZM165.917 49.1708L170.079 51.5766L170.579 50.7108L166.418 48.305L165.917 49.1708Z" fill="#1D1D1B" mask="url(#path-154-inside-62_1_369)"/>
<mask id="path-156-inside-63_1_369" fill="white">
<path d="M165.531 53.9143L165.23 54.0881L163.149 52.8832L163.446 52.7095L165.531 53.9143Z"/>
</mask>
<path d="M165.531 53.9143L165.23 54.0881L163.149 52.8832L163.446 52.7095L165.531 53.9143Z" fill="#1D1D1B"/>
<path d="M165.531 53.9143L165.781 54.3474C165.936 54.2581 166.031 54.0931 166.031 53.9145C166.031 53.7359 165.936 53.5708 165.781 53.4814L165.531 53.9143ZM165.23 54.0881L164.98 54.5208C165.134 54.6104 165.325 54.6105 165.48 54.5211L165.23 54.0881ZM163.149 52.8832L162.897 52.4516C162.743 52.5414 162.649 52.7062 162.649 52.8843C162.65 53.0623 162.745 53.2267 162.899 53.316L163.149 52.8832ZM163.446 52.7095L163.697 52.2766C163.541 52.1867 163.349 52.1871 163.194 52.2778L163.446 52.7095ZM165.281 53.4812L164.98 53.655L165.48 54.5211L165.781 54.3474L165.281 53.4812ZM165.481 53.6554L163.4 52.4505L162.899 53.316L164.98 54.5208L165.481 53.6554ZM163.402 53.3149L163.699 53.1411L163.194 52.2778L162.897 52.4516L163.402 53.3149ZM163.196 53.1424L165.281 54.3472L165.781 53.4814L163.697 52.2766L163.196 53.1424Z" fill="#1D1D1B" mask="url(#path-156-inside-63_1_369)"/>
<mask id="path-158-inside-64_1_369" fill="white">
<path d="M167.928 52.5299L167.631 52.7037L165.546 51.4988L165.848 51.3251L167.928 52.5299Z"/>
</mask>
<path d="M167.928 52.5299L167.631 52.7037L165.546 51.4988L165.848 51.3251L167.928 52.5299Z" fill="#1D1D1B"/>
<path d="M167.928 52.5299L168.181 52.9616C168.334 52.8717 168.429 52.7069 168.428 52.5289C168.428 52.3508 168.333 52.1864 168.179 52.0972L167.928 52.5299ZM167.631 52.7037L167.381 53.1366C167.537 53.2265 167.728 53.226 167.883 53.1353L167.631 52.7037ZM165.546 51.4988L165.296 51.0658C165.142 51.1551 165.046 51.3201 165.046 51.4987C165.046 51.6773 165.142 51.8424 165.296 51.9318L165.546 51.4988ZM165.848 51.3251L166.098 50.8924C165.943 50.8028 165.752 50.8026 165.598 50.892L165.848 51.3251ZM167.676 52.0982L167.379 52.272L167.883 53.1353L168.181 52.9616L167.676 52.0982ZM167.881 52.2708L165.797 51.0659L165.296 51.9318L167.381 53.1366L167.881 52.2708ZM165.796 51.9319L166.097 51.7581L165.598 50.892L165.296 51.0658L165.796 51.9319ZM165.597 51.7578L167.678 52.9626L168.179 52.0972L166.098 50.8924L165.597 51.7578Z" fill="#1D1D1B" mask="url(#path-158-inside-64_1_369)"/>
<mask id="path-160-inside-65_1_369" fill="white">
<path d="M176.331 47.6738L176.03 47.8476L171.868 45.4456L172.169 45.2719L176.331 47.6738Z"/>
</mask>
<path d="M176.331 47.6738L176.03 47.8476L171.868 45.4456L172.169 45.2719L176.331 47.6738Z" fill="#1D1D1B"/>
<path d="M176.331 47.6738L176.581 48.1069C176.736 48.0176 176.831 47.8525 176.831 47.6738C176.831 47.4951 176.736 47.33 176.581 47.2407L176.331 47.6738ZM176.03 47.8476L175.78 48.2806C175.935 48.3699 176.125 48.3699 176.28 48.2806L176.03 47.8476ZM171.868 45.4456L171.618 45.0126C171.464 45.1019 171.368 45.2669 171.368 45.4456C171.368 45.6243 171.463 45.7894 171.618 45.8787L171.868 45.4456ZM172.169 45.2719L172.419 44.8388C172.265 44.7495 172.074 44.7495 171.919 44.8388L172.169 45.2719ZM176.081 47.2407L175.78 47.4145L176.28 48.2806L176.581 48.1069L176.081 47.2407ZM176.28 47.4145L172.118 45.0126L171.618 45.8787L175.78 48.2806L176.28 47.4145ZM172.118 45.8787L172.419 45.7049L171.919 44.8388L171.618 45.0126L172.118 45.8787ZM171.919 45.7049L176.081 48.1068L176.581 47.2407L172.419 44.8388L171.919 45.7049Z" fill="#1D1D1B" mask="url(#path-160-inside-65_1_369)"/>
<mask id="path-162-inside-66_1_369" fill="white">
<path d="M171.533 50.4462L171.232 50.62L169.151 49.419L169.452 49.2452L171.533 50.4462Z"/>
</mask>
<path d="M171.533 50.4462L171.232 50.62L169.151 49.419L169.452 49.2452L171.533 50.4462Z" fill="#1D1D1B"/>
<path d="M171.533 50.4462L171.783 50.8793C171.938 50.79 172.033 50.6249 172.033 50.4462C172.033 50.2676 171.938 50.1025 171.783 50.0132L171.533 50.4462ZM171.232 50.62L170.982 51.053C171.137 51.1423 171.327 51.1423 171.482 51.053L171.232 50.62ZM169.151 49.419L168.901 48.9859C168.746 49.0752 168.651 49.2403 168.651 49.419C168.651 49.5977 168.746 49.7628 168.901 49.8521L169.151 49.419ZM169.452 49.2452L169.702 48.8122C169.548 48.7229 169.357 48.7229 169.202 48.8122L169.452 49.2452ZM171.283 50.0131L170.982 50.1869L171.482 51.053L171.783 50.8793L171.283 50.0131ZM171.482 50.1869L169.401 48.986L168.901 49.8521L170.982 51.053L171.482 50.1869ZM169.401 49.8521L169.702 49.6783L169.202 48.8122L168.901 48.9859L169.401 49.8521ZM169.202 49.6783L171.283 50.8793L171.783 50.0132L169.702 48.8122L169.202 49.6783Z" fill="#1D1D1B" mask="url(#path-162-inside-66_1_369)"/>
<mask id="path-164-inside-67_1_369" fill="white">
<path d="M173.929 49.0607L173.632 49.2345L171.551 48.0335L171.849 47.8597L173.929 49.0607Z"/>
</mask>
<path d="M173.929 49.0607L173.632 49.2345L171.551 48.0335L171.849 47.8597L173.929 49.0607Z" fill="#1D1D1B"/>
<path d="M173.929 49.0607L174.182 49.4924C174.336 49.4025 174.43 49.2375 174.429 49.0593C174.429 48.8812 174.334 48.7167 174.179 48.6277L173.929 49.0607ZM173.632 49.2345L173.382 49.6675C173.538 49.7573 173.729 49.7568 173.885 49.6661L173.632 49.2345ZM171.551 48.0335L171.299 47.6019C171.145 47.6918 171.051 47.8567 171.051 48.0349C171.052 48.2131 171.147 48.3775 171.301 48.4666L171.551 48.0335ZM171.849 47.8597L172.098 47.4267C171.943 47.3369 171.751 47.3375 171.596 47.4281L171.849 47.8597ZM173.677 48.6291L173.38 48.8028L173.885 49.6661L174.182 49.4924L173.677 48.6291ZM173.882 48.8014L171.801 47.6005L171.301 48.4666L173.382 49.6675L173.882 48.8014ZM171.804 48.4652L172.101 48.2914L171.596 47.4281L171.299 47.6019L171.804 48.4652ZM171.599 48.2928L173.68 49.4938L174.179 48.6277L172.098 47.4267L171.599 48.2928Z" fill="#1D1D1B" mask="url(#path-164-inside-67_1_369)"/>
<mask id="path-166-inside-68_1_369" fill="white">
<path d="M182.329 44.2096L182.028 44.3833L177.866 41.9814L178.167 41.8076L182.329 44.2096Z"/>
</mask>
<path d="M182.329 44.2096L182.028 44.3833L177.866 41.9814L178.167 41.8076L182.329 44.2096Z" fill="#1D1D1B"/>
<path d="M182.329 44.2096L182.579 44.6426C182.734 44.5533 182.829 44.3882 182.829 44.2096C182.829 44.0309 182.734 43.8658 182.579 43.7765L182.329 44.2096ZM182.028 44.3833L181.778 44.8164C181.933 44.9056 182.123 44.9056 182.278 44.8164L182.028 44.3833ZM177.866 41.9814L177.616 41.5483C177.461 41.6376 177.366 41.8027 177.366 41.9814C177.366 42.16 177.461 42.3251 177.616 42.4144L177.866 41.9814ZM178.167 41.8076L178.417 41.3746C178.262 41.2853 178.072 41.2853 177.917 41.3746L178.167 41.8076ZM182.079 43.7765L181.778 43.9503L182.278 44.8164L182.579 44.6426L182.079 43.7765ZM182.278 43.9503L178.116 41.5483L177.616 42.4144L181.778 44.8164L182.278 43.9503ZM178.116 42.4145L178.417 42.2407L177.917 41.3746L177.616 41.5483L178.116 42.4145ZM177.917 42.2407L182.079 44.6426L182.579 43.7765L178.417 41.3746L177.917 42.2407Z" fill="#1D1D1B" mask="url(#path-166-inside-68_1_369)"/>
<mask id="path-168-inside-69_1_369" fill="white">
<path d="M177.531 46.9833L177.23 47.1571L175.149 45.9561L175.45 45.7823L177.531 46.9833Z"/>
</mask>
<path d="M177.531 46.9833L177.23 47.1571L175.149 45.9561L175.45 45.7823L177.531 46.9833Z" fill="#1D1D1B"/>
<path d="M177.531 46.9833L177.781 47.4164C177.936 47.3271 178.031 47.162 178.031 46.9833C178.031 46.8047 177.936 46.6396 177.781 46.5503L177.531 46.9833ZM177.23 47.1571L176.98 47.5901C177.135 47.6794 177.325 47.6794 177.48 47.5902L177.23 47.1571ZM175.149 45.9561L174.899 45.5231C174.744 45.6124 174.649 45.7774 174.649 45.9561C174.649 46.1348 174.744 46.2999 174.899 46.3892L175.149 45.9561ZM175.45 45.7823L175.7 45.3493C175.545 45.26 175.355 45.26 175.2 45.3493L175.45 45.7823ZM177.281 46.5503L176.98 46.724L177.48 47.5902L177.781 47.4164L177.281 46.5503ZM177.48 46.724L175.399 45.5231L174.899 46.3892L176.98 47.5901L177.48 46.724ZM175.399 46.3892L175.7 46.2154L175.2 45.3493L174.899 45.5231L175.399 46.3892ZM175.2 46.2154L177.281 47.4164L177.781 46.5503L175.7 45.3493L175.2 46.2154Z" fill="#1D1D1B" mask="url(#path-168-inside-69_1_369)"/>
<mask id="path-170-inside-70_1_369" fill="white">
<path d="M179.933 45.5965L179.632 45.7703L177.551 44.5693L177.848 44.3955L179.933 45.5965Z"/>
</mask>
<path d="M179.933 45.5965L179.632 45.7703L177.551 44.5693L177.848 44.3955L179.933 45.5965Z" fill="#1D1D1B"/>
<path d="M179.933 45.5965L180.183 46.0295C180.338 45.9402 180.433 45.775 180.433 45.5963C180.433 45.4176 180.338 45.2524 180.183 45.1632L179.933 45.5965ZM179.632 45.7703L179.382 46.2033C179.537 46.2926 179.727 46.2926 179.882 46.2033L179.632 45.7703ZM177.551 44.5693L177.299 44.1376C177.145 44.2275 177.051 44.3925 177.051 44.5707C177.052 44.7488 177.147 44.9133 177.301 45.0023L177.551 44.5693ZM177.848 44.3955L178.098 43.9623C177.942 43.8727 177.751 43.8733 177.596 43.9639L177.848 44.3955ZM179.683 45.1634L179.382 45.3372L179.882 46.2033L180.183 46.0295L179.683 45.1634ZM179.882 45.3372L177.801 44.1362L177.301 45.0023L179.382 46.2033L179.882 45.3372ZM177.803 45.0009L178.101 44.8272L177.596 43.9639L177.299 44.1376L177.803 45.0009ZM177.599 44.8288L179.683 46.0297L180.183 45.1632L178.098 43.9623L177.599 44.8288Z" fill="#1D1D1B" mask="url(#path-170-inside-70_1_369)"/>
<path d="M7.64116 103.995L7.26668 107.694L7.00415 107.493V110.266C7.00415 110.266 12.5404 115.139 17.0728 119.105C21.6014 123.075 19.5436 124.145 19.5436 124.145L52.7455 143.318L57.4516 144.167C64.7715 145.488 71.4273 147.813 76.8515 150.944L78.2452 151.751H82.3453L88.0243 155.03L92.024 152.721L7.64116 103.995Z" fill="#1D1D1B" stroke="#1D1D1B" stroke-width="0.5" stroke-miterlimit="10" stroke-linejoin="round"/>
<path d="M7.64087 101.223L92.0198 149.953L88.0202 152.262L82.3411 148.984H78.2411L76.8474 148.177C71.427 145.045 64.7673 142.72 57.4475 141.4L52.7413 140.55L19.5395 121.377C19.5395 121.377 21.5972 120.303 17.0686 116.337C12.5401 112.368 7 107.498 7 107.498L7.64087 101.223Z" fill="#FFD6BC" stroke="#1D1D1B" stroke-width="0.5" stroke-miterlimit="10" stroke-linejoin="round"/>
<path d="M19.5408 121.376V124.149L52.7426 143.322V140.55L19.5408 121.376Z" fill="#1D1D1B" stroke="#1D1D1B" stroke-width="0.5" stroke-miterlimit="10" stroke-linejoin="round"/>
<path d="M82.3425 148.984H78.2424V151.756H82.3425V148.984Z" fill="white" stroke="#1D1D1B" stroke-width="0.5" stroke-miterlimit="10" stroke-linejoin="round"/>
<path d="M88.0168 152.261V155.034L92.0165 152.725V149.952L88.0168 152.261Z" fill="white" stroke="#1D1D1B" stroke-width="0.5" stroke-miterlimit="10" stroke-linejoin="round"/>
<path d="M141.461 77.0416L138.586 75.3803L183.638 49.3634L186.513 51.0247L141.461 77.0416Z" fill="#FFEADD" stroke="#1D1D1B" stroke-width="0.5" stroke-linejoin="round"/>
<path d="M97.5098 49.1746L181.889 97.9046L185.888 95.5954L180.209 92.3168V89.9496L178.816 89.1426C173.395 86.0108 169.365 82.1684 167.079 77.9399L165.608 75.2213L132.406 56.0483C132.406 56.0483 130.549 57.2377 123.677 54.6195C116.805 52.0013 108.37 48.8077 108.37 48.8077L97.5098 49.1746Z" fill="#FFD6BC" stroke="#1D1D1B" stroke-width="0.5" stroke-miterlimit="10" stroke-linejoin="round"/>
<path d="M113.559 58.4465L97.5103 49.1747V51.9473L113.559 61.2191L123.11 66.7336L125.512 65.3472L113.559 58.4465Z" fill="#1D1D1B" stroke="#1D1D1B" stroke-width="0.5" stroke-miterlimit="10" stroke-linejoin="round"/>
<path d="M138.086 72.6079V75.3806L181.89 100.678V97.9055L138.086 72.6079Z" fill="#1D1D1B" stroke="#1D1D1B" stroke-width="0.5" stroke-miterlimit="10" stroke-linejoin="round"/>
<path d="M132.409 56.048V54.6617L166.46 36.3845L173.058 40.196L139.007 59.8594L132.409 56.048Z" fill="#1D1D1B" stroke="#1D1D1B" stroke-width="0.5" stroke-miterlimit="10" stroke-linejoin="round"/>
<path d="M132.409 54.6635L166.46 35L173.058 38.8114L139.007 58.4749L132.409 54.6635Z" fill="#FFEADD" stroke="#1D1D1B" stroke-width="0.5" stroke-miterlimit="10" stroke-linejoin="round"/>
<path d="M173.059 38.8115V40.1979L139.008 59.8613V58.475L173.059 38.8115Z" fill="white" stroke="#1D1D1B" stroke-width="0.5" stroke-miterlimit="10" stroke-linejoin="round"/>
<path d="M174.334 55.574L184.121 55.7246L188.271 53.3265L190.835 50.4612L187.009 48.2523L174.334 55.574Z" fill="#FFEADD" stroke="#1D1D1B" stroke-width="0.5" stroke-miterlimit="10" stroke-linejoin="round"/>
<path d="M174.335 55.5743V58.347L184.122 58.4976V55.7249L174.335 55.5743Z" fill="#FFD6BC" stroke="#1D1D1B" stroke-width="0.5" stroke-miterlimit="10" stroke-linejoin="round"/>
<path d="M188.274 53.3274V56.1001L184.123 58.4981V55.7255L188.274 53.3274Z" fill="#FFD6BC" stroke="#1D1D1B" stroke-width="0.5" stroke-miterlimit="10" stroke-linejoin="round"/>
<path d="M190.837 50.4622V53.2348L188.274 56.1002V53.3275L190.837 50.4622Z" fill="#FFD6BC" stroke="#1D1D1B" stroke-width="0.5" stroke-miterlimit="10" stroke-linejoin="round"/>
<path d="M138.084 72.612L183.636 46.3026L187.01 46.8664V48.2527L141.458 74.5582L138.084 72.612Z" fill="white" stroke="#1D1D1B" stroke-width="0.5" stroke-miterlimit="10" stroke-linejoin="round"/>
<path d="M138.084 71.2267L183.636 44.9174L187.01 46.8675L141.458 73.173L138.084 71.2267Z" fill="#FFEADD" stroke="#1D1D1B" stroke-width="0.5" stroke-miterlimit="10" stroke-linejoin="round"/>
<path d="M138.086 71.2268V72.6131L141.46 74.5594V73.1731L138.086 71.2268Z" fill="#1D1D1B" stroke="#1D1D1B" stroke-width="0.5" stroke-miterlimit="10" stroke-linejoin="round"/>
<path d="M134.785 70.7046L138.086 72.6122V71.2259L134.785 70.7046Z" fill="#1D1D1B" stroke="#1D1D1B" stroke-width="0.5" stroke-miterlimit="10" stroke-linejoin="round"/>
<path d="M181.891 97.9064V100.679L185.891 98.3698V95.5972L181.891 97.9064Z" fill="white" stroke="#1D1D1B" stroke-width="0.5" stroke-miterlimit="10" stroke-linejoin="round"/>
</svg>
