<svg width="8" height="8" viewBox="0 0 8 8" fill="none" xmlns="http://www.w3.org/2000/svg">
<path fill-rule="evenodd" clip-rule="evenodd" d="M2.14729 6.35834C2.09973 6.31171 2.06195 6.25602 2.03615 6.19454C2.01036 6.13306 1.99707 6.06703 1.99707 6.00033C1.99707 5.93363 2.01036 5.8676 2.03615 5.80612C2.06195 5.74465 2.09973 5.68896 2.14729 5.64232C2.24072 5.54983 2.36673 5.49796 2.49802 5.49796C2.62931 5.49796 2.75532 5.54983 2.84876 5.64232L3.99707 6.95668L5.14538 5.63732C5.23882 5.54482 5.36483 5.49295 5.49612 5.49295C5.62741 5.49295 5.75342 5.54482 5.84685 5.63732C5.89441 5.68395 5.93219 5.73964 5.95799 5.80112C5.98378 5.8626 5.99707 5.92862 5.99707 5.99532C5.99707 6.06202 5.98378 6.12805 5.95799 6.18953C5.93219 6.25101 5.89441 6.3067 5.84685 6.35333L4.62365 7.6752L4.52629 7.78035C4.38587 7.921 4.19553 8 3.99707 8C3.79861 8 3.60827 7.921 3.46785 7.78035L2.14729 6.35834ZM5.84685 1.64166C5.89441 1.68829 5.93219 1.74398 5.95799 1.80546C5.98378 1.86694 5.99707 1.93297 5.99707 1.99967C5.99707 2.06637 5.98378 2.1324 5.95799 2.19388C5.93219 2.25535 5.89441 2.31104 5.84685 2.35768C5.75342 2.45017 5.62741 2.50204 5.49612 2.50204C5.36483 2.50204 5.23882 2.45017 5.14538 2.35768L3.99707 1.04332L2.84876 2.36268C2.75532 2.45518 2.62931 2.50705 2.49802 2.50705C2.36673 2.50705 2.24072 2.45518 2.14729 2.36268C2.09973 2.31605 2.06195 2.26036 2.03615 2.19888C2.01036 2.1374 1.99707 2.07138 1.99707 2.00468C1.99707 1.93798 2.01036 1.87195 2.03615 1.81047C2.06195 1.74899 2.09973 1.6933 2.14729 1.64667L3.37049 0.3248L3.46785 0.219651C3.60827 0.0790014 3.79861 0 3.99707 0C4.19553 0 4.38587 0.0790014 4.52629 0.219651L5.84685 1.64166Z" fill="#636360"/>
</svg>
